<?xml version="1.0" encoding="UTF-8"?>
<svg width="448" height="464" xmlns="http://www.w3.org/2000/svg" preserveAspectRatio="xMidYMid meet">
 <metadata>Created by potrace 1.11, written by Peter Selinger 2001-2013</metadata>

 <g>
  <title>Layer 1</title>
  <g id="svg_1" fill="#000000" transform="translate(0, 464) scale(0.1, -0.1)">
   <path fill="#ffffff" id="svg_2" d="m1269,3927l-956,-402l-7,-602c-3,-332 -3,-874 0,-1206l7,-602l936,-393c515,-216 950,-397 966,-403c27,-9 110,24 990,394l960,404l0,1203l0,1204l-959,403c-527,222 -964,403 -970,403c-6,0 -441,-181 -967,-403zm2722,-536l29,-29l0,-1009c0,-954 -1,-1010 -19,-1048c-26,-59 -68,-103 -120,-129c-147,-74 -1453,-626 -1480,-626c-23,0 -42,9 -62,29l-29,29l0,1019c0,977 1,1020 19,1060c41,89 109,129 443,261c4,2 8,-384 8,-857c0,-855 0,-861 21,-882c26,-26 54,-18 97,27l32,34l0,869c0,685 3,871 13,878c6,4 111,49 232,99l220,92l5,-864c4,-754 7,-866 20,-874c28,-18 59,-10 95,25l35,36l2,871l3,872l70,30c317,133 319,133 366,87zm-2717,-282c385,-166 722,-312 747,-325c52,-26 94,-70 120,-129c18,-38 19,-94 19,-1048l0,-1009l-30,-30c-42,-41 -67,-37 -271,49l-164,69l-3,872l-2,871l-35,36c-36,35 -67,43 -95,25c-13,-8 -16,-120 -20,-874l-5,-864l-220,92c-121,50 -226,95 -232,99c-10,7 -13,193 -13,878l0,869l-32,34c-43,45 -71,53 -97,27c-21,-21 -21,-27 -21,-882c0,-473 -4,-859 -8,-857c-334,132 -402,172 -443,261c-18,40 -19,83 -19,1060l0,1019l29,29c20,20 39,29 62,29c19,0 299,-115 733,-301z"/>
  </g>
 </g>
</svg>