<?xml version="1.0" encoding="UTF-8" standalone="no"?>
<!DOCTYPE svg PUBLIC "-//W3C//DTD SVG 1.1//EN" "http://www.w3.org/Graphics/SVG/1.1/DTD/svg11.dtd">
<svg xmlns="http://www.w3.org/2000/svg">
<metadata/>
<defs>
<font id="PFHandbookProMediumRegular" horiz-adv-x="1184">
<font-face units-per-em="2048" ascent="1536" descent="-512"/>
<missing-glyph horiz-adv-x="554"/>
<glyph unicode="ﬁ" horiz-adv-x="1125" d="M39 916v130q0 30 31 29h93q30 0 30 27v170q5 142 104.5 223.5t272.5 81.5q190 0 302 -73q19 -14 23.5 -23t-5.5 -33l-51 -113q-12 -21 -27 -21t-43 12q-89 37 -178.5 37t-130.5 -45.5t-41 -115.5v-102q0 -24 30 -25h502q27 0 35.5 -9.5t8.5 -37.5v-998q0 -30 -32 -30 h-166q-29 0 -29 30v814q0 24 -5 32t-32 8h-282q-30 0 -30 -28v-826q0 -30 -31 -30h-167q-32 0 -31 30v823q0 32 -27 31h-98q-27 0 -26 32z"/>
<glyph unicode="ﬂ" horiz-adv-x="1207" d="M39 916v130q0 30 31 29h93q30 0 30 27v165q5 144 103.5 225.5t273.5 81.5q112 0 230 -39q14 -5 21 -5h14q6 0 22 5q77 23 102 23t30.5 -11.5t5.5 -37.5v-1188q0 -78 21.5 -102t80.5 -24h29q29 0 29 -39v-135q0 -27 -18 -32.5t-37 -6.5t-34 -1h-20q-230 0 -268 204 q-13 66 -13 149v965q0 36 -103 55q-36 6 -94.5 6t-103.5 -45t-45 -115v-100q0 -24 30 -25h179q24 0 33 -8.5t9 -35.5v-108q0 -27 -12 -33t-30 -6h-179q-30 0 -30 -28v-826q0 -30 -31 -30h-167q-32 0 -31 30v823q0 32 -27 31h-98q-27 0 -26 32z"/>
<glyph unicode="ﬃ" horiz-adv-x="1705" d="M39 916v130q0 30 31 29h93q30 0 30 27v107q0 143 100 231q106 95 277 95q127 0 256 -53q2 -3 10 -3q17 0 51 27t105 52.5t167 25.5q176 0 294 -70q19 -15 22.5 -25t-5.5 -31l-52 -116q-11 -19 -27 -19q-14 0 -43 12q-91 37 -178 37t-128.5 -46.5t-41.5 -116.5v-109 q0 -24 26 -25h509q27 0 33 -9.5t6 -37.5v-998q0 -30 -32 -30h-165q-30 0 -29 30v816q0 24 -5 31t-32 7h-283q-28 0 -28 -28v-826q0 -30 -33 -30h-167q-30 0 -30 30v823q0 32 -26 31h-295q-30 0 -30 -28v-826q0 -30 -31 -30h-167q-32 0 -31 30v823q0 32 -27 31h-98 q-27 0 -26 32zM419 1100q0 -24 30 -25h295q27 0 26 27v161q0 14 -5 20t-26 16q-68 24 -154 24q-165 0 -166 -163v-60z"/>
<glyph unicode="ﬄ" horiz-adv-x="1737" d="M39 916v130q0 30 31 29h93q30 0 30 27v121q5 135 105 221q105 91 272 91q127 0 256 -53q2 -3 13 -3q9 0 17 7q108 98 295 98q132 0 223 -37q15 -5 22 -5h12l132 28q19 0 25.5 -11.5t6.5 -35.5v-1202q0 -78 22 -102t80 -24h30q26 0 26 -39v-135q0 -32 -32 -35 q-19 -5 -42 -5h-33q-230 0 -268 204q-13 66 -13 149v968q0 27 -10.5 33.5t-32.5 15.5q-51 21 -131 21t-125.5 -46.5t-45.5 -116.5v-109q0 -24 29 -25h176q27 0 33.5 -8.5t6.5 -35.5v-108q0 -27 -10.5 -33t-29.5 -6h-176q-30 0 -29 -28v-826q0 -30 -32 -30h-165q-32 0 -32 30 v823q0 32 -27 31h-292q-30 0 -30 -28v-826q0 -30 -31 -30h-167q-32 0 -31 30v823q0 32 -27 31h-98q-27 0 -26 32zM419 1100q0 -24 30 -25h295q27 0 26 27v161q0 19 -10 28q-93 32 -175 32q-165 0 -166 -163v-60z"/>
<glyph horiz-adv-x="0"/>
<glyph horiz-adv-x="2048"/>
<glyph unicode=" " horiz-adv-x="554"/>
<glyph unicode="	" horiz-adv-x="554"/>
<glyph unicode=" " horiz-adv-x="554"/>
<glyph unicode="!" horiz-adv-x="656" d="M200 121.5q0 58.5 44 100t103.5 41.5t103.5 -41t45 -100t-41.5 -101t-104.5 -42t-106 42t-44 100.5zM226 1474q0 30 30 30h185q30 0 29 -27l-42 -1046q0 -24 -21 -24h-107q-12 0 -18.5 8.5t-6.5 12.5z"/>
<glyph unicode="&quot;" horiz-adv-x="740" d="M134 1028v446q0 30 29 30h125q12 0 21.5 -6.5t7.5 -18.5v-451q0 -12 -9.5 -19t-21.5 -7h-121q-32 0 -31 26zM431 1028v446q0 30 32 30h122q12 0 21.5 -6.5t7.5 -18.5v-451q0 -26 -29 -26h-122q-32 0 -32 26z"/>
<glyph unicode="#" d="M49 446l21 107q7 30 35 29h137q23 0 28 23l58 258q3 12 -0.5 20.5t-25.5 8.5h-144q-19 0 -22.5 7.5t-1.5 19.5l22 104q7 28 34 28h163q19 0 24 21l60 270q4 19 28 21h112q28 0 32.5 -10.5t-0.5 -24.5l-53 -244q-10 -34 24 -33h171q19 0 24 21l66 270q0 19 27 21h109 q27 0 32 -10.5t3 -24.5l-54 -244q-10 -31 24 -31h127q37 0 24 -39l-19 -95q-5 -27 -37 -27h-136q-28 0 -32 -20l-56 -258q-9 -32 24 -32h146q33 0 28 -29l-23 -102q-5 -30 -33 -30h-164q-24 0 -27 -16l-63 -281q-4 -22 -27 -22h-112q-27 0 -32 11t0 26l56 254q5 31 -26 31 h-172q-19 0 -23 -19l-68 -281q-5 -22 -28 -22h-111q-40 0 -35 35q0 9 21 98t31.5 130.5t6 48.5t-23.5 7h-125q-24 0 -24 25zM453 614q-9 -32 24 -32h169q22 0 26 23l56 255q11 32 -24 32h-165q-27 0 -32 -24z"/>
<glyph unicode="$" d="M151 1075q0 142 94 252q83 97 225 136q39 9 39 41v122q0 27 30 27h87q30 0 30 -27v-117q0 -14 7 -24.5t59.5 -18.5t123 -40.5t131.5 -87.5q27 -28 0 -56l-75 -91q-24 -34 -61 -2q-56 51 -125.5 76.5t-120.5 25.5t-90.5 -14t-71.5 -41q-72 -59 -72 -164q0 -86 92 -143 q50 -31 148 -60.5t172.5 -61.5t134 -80t96 -115.5t36.5 -161.5t-26.5 -162.5t-72.5 -117.5q-87 -92 -248 -124q-37 -8 -37 -46v-130q0 -29 -30 -28h-87q-30 0 -30 26v132q0 32 -41 39q-191 21 -310 136q-28 24 0 55l76 91q30 32 61 0q56 -51 129 -76.5t130.5 -25.5t106 13.5 t85.5 40.5q80 59 80 158q0 95 -95 160q-55 38 -150 69t-165 60t-128 74q-137 106 -137 281z"/>
<glyph unicode="%" horiz-adv-x="1779" d="M114 835v413q0 126 86 196t221 70t220 -68.5t85 -197.5v-413q0 -129 -83 -197t-221 -68t-223 67t-85 198zM298 835q0 -51 33.5 -82.5t88.5 -31.5t89.5 30.5t34.5 83.5v413q0 51 -34.5 83t-89.5 32t-88.5 -32t-33.5 -83v-413zM468 -42l683 1597q10 22 38 22h81 q27 0 30.5 -11t-3.5 -29l-683 -1591q-8 -19 -32 -19h-94q-33 0 -20 31zM1053 256v412q0 126 85 195.5t221 69.5t221 -68t85 -197v-412q0 -130 -83 -198t-221 -68t-223 67t-85 199zM1235 256q0 -51 34.5 -82.5t89.5 -31.5t89 30t34 84v412q0 51 -34 82.5t-89 31.5 t-89.5 -31.5t-34.5 -82.5v-412z"/>
<glyph unicode="&amp;" horiz-adv-x="1454" d="M142 437v535q0 189 136 306q131 113 334 113h355q12 0 23.5 -8.5t11.5 -22.5v-139q0 -32 -32 -32h-356q-107 0 -175.5 -61t-68.5 -153v-538q0 -114 33 -159q66 -90 211 -90h39q142 0 210 87q51 67 51 181v226l-6 15t-24 10h-256q-29 0 -28 28v137q0 30 31 30h507 q151 0 288 87q33 26 51 -7l56 -90q7 -14 7 -29t-17 -28q-139 -111 -339 -123q-21 -5 -32.5 -12t-11.5 -32v-212q0 -207 -121 -334q-130 -136 -366 -136h-37q-360 0 -448 269q-26 82 -26 182z"/>
<glyph unicode="'" horiz-adv-x="460" d="M139 1028v446q0 30 31 30h125q32 0 31 -25l-2 -451q0 -12 -9.5 -19t-21.5 -7h-120q-34 0 -34 26z"/>
<glyph unicode="(" horiz-adv-x="823" d="M168 652q0 150 38 297.5t95 281.5q94 221 255 441q27 36 65 12l83 -44q39 -19 15 -58q-310 -491 -310 -931q0 -211 92 -487q81 -244 196 -429q17 -28 12 -43.5t-16 -19.5l-62 -40q-49 -32 -85 15q-259 346 -345 712q-33 143 -33 293z"/>
<glyph unicode=")" horiz-adv-x="788" d="M81 1582q-24 39 14 58l83 44q39 24 66 -12q254 -349 349 -722q38 -148 38 -298t-33 -292.5t-86 -270.5q-93 -222 -259 -442q-36 -47 -85 -15l-61 40q-12 4 -16.5 19.5t29.5 71t86 167.5t93 234q91 276 91 487q0 440 -309 931z"/>
<glyph unicode="*" horiz-adv-x="921" d="M81 1282l31 90q12 46 56 30l209 -91q17 -9 18 10l-25 237q-5 38 46 38h91q46 0 44 -43l-27 -227q-5 -22 17 -15l208 88q44 17 58 -27l32 -86q5 -19 2.5 -33.5t-27.5 -19.5l-221 -49q-27 -7 -8 -24l136 -163q39 -39 7 -64l-77 -58q-17 -12 -34 -12t-32 27l-113 194 q-11 19 -23 0l-117 -197q-12 -19 -25.5 -23t-38.5 13l-73 51q-40 25 -5 69l147 163q14 17 -5 22l-223 53q-39 7 -28 47z"/>
<glyph unicode="+" d="M95 612v85q0 42 44 42h336q21 0 22 19v339q0 42 42 41h94q44 0 44 -41v-334q0 -14 3.5 -19t19.5 -5h346q42 0 40 -42v-83q0 -44 -40 -44h-346q-15 0 -19 -2.5t-4 -14.5v-341q0 -39 -40 -39h-96q-44 0 -44 39v341q0 17 -22 17h-336q-44 0 -44 42z"/>
<glyph unicode="," horiz-adv-x="537" d="M124 -219l30 428q0 59 55 59h161q42 0 50 -18t-1 -50l-126 -437q-12 -44 -56 -44h-72q-29 0 -35 19.5t-6 42.5z"/>
<glyph unicode="-" horiz-adv-x="808" d="M119 512v125q0 29 30 28h492q33 0 31 -26v-127q0 -30 -28 -29h-493q-32 0 -32 29z"/>
<glyph unicode="." horiz-adv-x="537" d="M112 124q0 58 43 101t103.5 43t103.5 -42t43 -101.5t-43 -101.5t-103.5 -42t-103.5 42t-43 101z"/>
<glyph unicode="/" horiz-adv-x="756" d="M12 -117l565 1728q12 35 62 34h75q42 0 30 -39l-571 -1732q-10 -35 -49 -35h-85q-37 0 -27 44z"/>
<glyph unicode="0" d="M142 405v702q0 193 125 308q120 111 323 111q198 0 324 -109q130 -112 130 -310v-702q0 -203 -125.5 -311t-325.5 -108q-206 0 -326 106q-125 110 -125 313zM372 405q0 -100 61.5 -159.5t158 -59.5t157 58t60.5 161v702q0 97 -60.5 156.5t-157 59.5t-158 -60.5 t-61.5 -155.5v-702z"/>
<glyph unicode="1" d="M256 1126v132q0 19 3.5 35t23.5 28l258 158q37 24 68 25h103q41 0 41 -39v-1433q0 -32 -32 -32h-170q-32 0 -32 30v1149q0 40 -39 21l-161 -93q-27 -17 -45 -12t-18 31z"/>
<glyph unicode="2" d="M117 42v90q0 30 3.5 50t30.5 55l521 665q100 121 100 211.5t-52 150t-171 59.5q-71 0 -124 -34t-75.5 -65.5t-38.5 -40t-36 2.5l-100 74q-39 26 -14 61q135 205 416 205q301 0 399 -224q33 -74 33 -147t-15 -119.5t-37 -88.5q-31 -61 -94 -145l-447 -568q-23 -32 15 -32 l561 -2q30 0 29 -27v-141q0 -32 -29 -32h-834q-41 0 -41 42z"/>
<glyph unicode="3" d="M124 205q-13 31 18 48l126 73q30 19 46 -9q92 -131 209.5 -131t177 58t59.5 151v112q0 86 -53.5 149t-146.5 63h-167q-32 0 -32 30v138q0 29 29 29h154q97 0 153 55t56 149t-62.5 148.5t-140.5 54.5q-150 0 -224 -109q-26 -46 -61 -25l-111 66q-40 24 -15 61 q63 110 180.5 160t238.5 50q214 0 320 -107.5t106 -290.5q0 -93 -32.5 -154.5t-65.5 -94.5t-77 -48q-28 -12 7 -27q128 -39 163 -198q10 -43 10 -82v-108q0 -204 -122.5 -317t-327.5 -113q-198 0 -305 93q-78 67 -110 126z"/>
<glyph unicode="4" d="M88 356v85q0 58 21 108l479 935q12 19 38 20h167q21 0 27 -15t-1 -26l-468 -919q-5 -7 -5 -17.5t19 -10.5h286q19 0 22.5 12.5t3.5 24.5v375q0 28 27 28h175q30 0 30 -30v-370q0 -22 5 -31t24 -9h132q27 0 27 -26v-139q0 -30 -27 -30h-126q-35 0 -35 -35v-259 q0 -27 -27 -27h-178q-27 0 -27 27v261q0 34 -33 33h-523q-12 0 -22.5 8t-10.5 27z"/>
<glyph unicode="5" d="M139 209q-19 33 12 47l132 70q19 12 27.5 7t36.5 -41t73 -71t133 -35t156 57t68 152v182q0 93 -65.5 152t-160.5 59q-78 0 -144 -44q-49 -28 -83 -13l-92 41q-44 22 -44 61v639q0 32 31 32h716q32 0 32 -30v-144q0 -27 -29 -26h-489q-33 0 -33 -27v-288q0 -44 49 -22 q63 25 137.5 25t152.5 -30.5t135 -85.5q119 -116 119 -299v-172q0 -192 -133 -307q-129 -112 -325 -112q-227 0 -336 115q-40 43 -76 108z"/>
<glyph unicode="6" d="M134 395v714q0 190 128 305q124 112 320 112q163 0 263.5 -62t146.5 -162q12 -28 -13 -42l-119 -76q-34 -21 -56 18q-41 56 -92.5 88.5t-135 32.5t-148.5 -59.5t-65 -152.5v-188q0 -19 11.5 -25t39 17.5t86 40t107.5 16.5q195 0 316 -108t121 -299v-168q0 -190 -130 -304 q-121 -107 -321 -107q-203 0 -328 104q-131 111 -131 305zM363 397q0 -97 67 -154t160 -57t157.5 59.5t64.5 151.5v166q0 100 -67.5 154.5t-158.5 54.5t-157 -58t-66 -149v-168z"/>
<glyph unicode="7" d="M154 1167v305q0 32 29 32h824q27 0 42.5 -9t15.5 -35v-76q0 -37 -21 -80q-5 -23 -67.5 -156.5t-110 -238.5t-99 -216t-102.5 -219.5t-92.5 -198t-72 -155.5t-42.5 -90q-12 -30 -39 -30h-185q-16 0 -25 9.5t-2 27.5l556 1221q23 46 -30 46h-338q-27 0 -34.5 -7.5 t-7.5 -24.5v-102q0 -35 -29 -35h-138q-32 0 -32 32z"/>
<glyph unicode="8" d="M117 435q0 116 52 211t136 138q21 12 2 25q-113 58 -152 216q-11 42 -11 109.5t35 145.5t96 134q128 116 320 116q196 0 321 -113q130 -117 130 -308q0 -83 -40.5 -163.5t-105.5 -129.5q-22 -19 -3 -32q73 -46 120.5 -131t47.5 -197t-38 -200t-102 -148 q-133 -122 -337 -122q-325 0 -434 249q-37 84 -37 200zM346 432q0 -119 67 -182.5t172 -63.5q102 0 174 70q76 73 76 192.5t-71 185.5t-170 66t-173.5 -74.5t-74.5 -193.5zM365 1112.5q0 -91.5 64 -156t162.5 -64.5t163 63.5t64.5 155.5q0 93 -61 157.5t-161 64.5 t-166 -64.5t-66 -156z"/>
<glyph unicode="9" d="M119 948v154q0 193 133 311q128 113 325 113q206 0 330 -110q126 -111 126 -309v-705q0 -191 -129 -304q-126 -112 -322 -112q-163 0 -265 60q-99 65 -152 168q-11 28 16 42l131 72q19 12 29 2.5t20 -21.5q41 -56 91 -89.5t135 -33.5t150 59.5t65 154.5v193q0 41 -34 19 q-85 -73 -194 -73t-189 28t-139 82q-127 116 -127 299zM351 948q0 -97 68.5 -152t159.5 -55t157 58.5t66 148.5v159q0 92 -68 155q-69 64 -160.5 64t-157 -63t-65.5 -154v-161z"/>
<glyph unicode=":" horiz-adv-x="537" d="M124 123.5q0 58.5 42.5 101.5t103.5 43t103.5 -42t42.5 -101.5t-42 -101.5t-103.5 -42t-104 42t-42.5 100.5zM124 799.5q0 58.5 42.5 102.5t101.5 44q58 0 103 -43t45 -101t-42 -101t-103.5 -43t-104 41.5t-42.5 100z"/>
<glyph unicode=";" horiz-adv-x="537" d="M109 -219l25 428q6 61 59 61h160q40 0 49.5 -19t-0.5 -53l-125 -435q-11 -44 -58 -44h-70q-46 0 -40 62zM121 798.5q0 57.5 43 101.5t105 44t104.5 -42t42.5 -100t-42 -101t-104.5 -43t-105.5 41.5t-43 99z"/>
<glyph unicode="&lt;" d="M79 558v107q0 45 40 63l934 495q19 12 34 1.5t15 -27.5v-122q0 -15 -2.5 -33.5t-29.5 -29.5l-742 -375q-36 -19 0 -40l742 -376q27 -12 29.5 -30t2.5 -33v-119q0 -19 -15 -30t-34 1l-927 485q-49 27 -47 63z"/>
<glyph unicode="=" d="M95 346v68q0 49 59 49h874q58 0 58 -49v-65q0 -54 -58 -54h-874q-59 0 -59 51zM95 772v69q0 49 59 49h874q58 0 58 -49v-66q0 -54 -58 -54h-874q-59 0 -59 51z"/>
<glyph unicode="&gt;" d="M81 39v119q0 15 2.5 33t28.5 30l741 376q37 19 0 40l-741 375q-28 11 -29.5 29.5t-1.5 33.5v122q0 17 14 27.5t35 -1.5l933 -495q41 -18 41 -63v-107q0 -37 -48 -63l-926 -485q-19 -12 -34 -1.5t-15 30.5z"/>
<glyph unicode="?" horiz-adv-x="1212" d="M206 1285.5q-1 11.5 8 30.5q123 212 402 212q197 0 320 -102q129 -108 129 -309q0 -108 -72 -206.5t-170.5 -159.5t-156 -121t-57.5 -153v-46q0 -12 -9.5 -20.5t-22.5 -8.5h-161q-23 0 -32 8.5t-9 35.5v73q0 93 54 185.5t151 155.5q97 68 166.5 126t75.5 137t-51 142 t-146 63t-138.5 -34t-96.5 -97q-22 -28 -51 -11l-115 77q-17 11 -18 22.5zM342 121.5q0 58.5 42.5 100t103.5 41.5t103 -40t44 -100t-41 -102t-105 -42t-104.5 42t-42.5 100.5z"/>
<glyph unicode="@" horiz-adv-x="1809" d="M144 712q0 167 60.5 311t168 250t257 167.5t319.5 61.5t309 -51.5t241.5 -143t160.5 -218t58 -274t-34.5 -245.5t-87.5 -156q-101 -109 -248.5 -109t-226.5 85q-5 7 -10 7q-4 0 -28.5 -22t-80.5 -46t-112 -24q-126 0 -211.5 74t-85.5 202t82.5 201.5t214.5 73.5 q70 0 119 -33q12 -4 21.5 3t9.5 20v10q0 46 -32.5 77.5t-96 31.5t-108.5 -13.5t-76.5 -25.5t-42.5 15l-26 82q-7 24 12 35q121 53 242 53q163 0 236 -83.5t73 -208.5v-226q0 -144 132 -144t186 178q21 68 21 189t-54.5 225.5t-140.5 174.5t-193 108.5t-229 38.5t-242.5 -50 t-209.5 -138q-189 -188 -189 -463q0 -284 183 -468q189 -190 485 -190q200 0 393 78q19 5 35 7.5t25 -25.5l22 -63q15 -44 -24 -61q-228 -78 -427.5 -78t-353.5 54.5t-265 159.5q-231 218 -231 586zM763 582q0 -56 38 -94.5t96 -38.5q59 0 96.5 38.5t37.5 88.5t-32 95 t-96 45t-102 -38.5t-38 -95.5z"/>
<glyph unicode="A" horiz-adv-x="1144" d="M44 44l358 1428q7 32 44 32h244q17 0 26.5 -5.5t14.5 -24.5l369 -1428q2 -6 2 -14q0 -6 -2 -14q-4 -18 -30 -18h-173q-34 0 -41 24l-68 281q-5 12 -8 16.5t-15 4.5h-395q-14 0 -16.5 -6t-7.5 -13l-65 -283q-7 -24 -39 -24h-161q-39 0 -39 28q0 7 2 16zM405 546 q-1 -5 -1 -8q0 -14 15 -14h295q16 0 16 12q0 4 -2 10l-91 389l-65 293q-2 10 -7 10t-7 -8l-61 -286z"/>
<glyph unicode="B" horiz-adv-x="1207" d="M139 35v1435q0 34 36 34h464q202 0 319 -101t117 -294q0 -126 -99 -236q-30 -34 -64 -57q-10 -9 2 -16q105 -49 156 -145.5t51 -199t-30.5 -186t-88.5 -143.5q-122 -126 -332 -126h-495q-37 0 -36 35zM380 239q0 -27 27 -27h258q103 0 157.5 67t54.5 170q0 165 -125 226 q-45 22 -111 22h-234q-27 0 -27 -29v-429zM380 933q0 -31 24 -31h1h232q97 0 146.5 59.5t49.5 145t-52.5 136.5t-149.5 51h-226q-24 0 -25 -24v-337z"/>
<glyph unicode="C" horiz-adv-x="1098" d="M144 409v693q0 193 129 308.5t329 115.5q119 0 229 -40.5t202 -162.5q10 -12 10 -25q0 -17 -20 -33l-111 -88q-15 -12 -32 -6t-27 20q-41 56 -107.5 89.5t-157.5 33.5t-148 -62.5t-57 -154.5v-688q0 -90 61 -150.5t150 -60.5q155 0 259 116q12 12 25.5 23.5t33.5 -3.5 l121 -85q19 -11 19 -28q0 -10 -6 -21q-79 -112 -192 -163t-229 -51t-202 29t-149 84q-130 114 -130 310z"/>
<glyph unicode="D" horiz-adv-x="1242" d="M151 35v1435q0 34 39 34h463q226 0 341 -117t115 -327v-604q0 -222 -116 -339t-335 -117h-468q-39 0 -39 35zM393 244q0 -32 28 -32h225q114 0 168 61t54 166v631q0 224 -237 224h-207q-32 0 -31 -29v-1021z"/>
<glyph unicode="E" horiz-adv-x="1105" d="M149 35v1435q0 34 37 34h796q37 0 37 -34v-140q0 -36 -35 -36h-568q-29 0 -28 -24v-354q0 -32 28 -32h468q35 0 35 -36v-139q0 -34 -32 -34h-471q-29 0 -28 -29v-404q0 -30 31 -30h576q34 0 33 -34v-141q0 -37 -33 -37h-809q-37 0 -37 35z"/>
<glyph unicode="F" horiz-adv-x="1025" d="M146 35v1435q0 34 37 34h777q35 0 35 -32v-142q0 -36 -35 -36h-546q-30 0 -28 -24v-366q0 -27 26 -27h460q32 0 32 -36v-141q0 -35 -32 -35h-458q-27 0 -26 -32v-596q0 -37 -37 -37h-168q-37 0 -37 35z"/>
<glyph unicode="G" horiz-adv-x="1207" d="M144 405v699q0 191 136 309q132 113 347 113q113 0 234 -46.5t190 -168.5q19 -29 -13 -53l-117 -88q-9 -5 -19 -5l-39 24q-88 122 -242 122q-116 0 -177 -66t-61 -161v-675q0 -92 64.5 -151.5t166.5 -59.5t163.5 55.5t61.5 158.5v188q0 21 -20 21h-156q-37 0 -37 35v141 q0 35 37 34h377q42 0 42 -34v-392q0 -191 -130 -306q-128 -113 -336 -113t-338 109q-134 113 -134 310z"/>
<glyph unicode="H" horiz-adv-x="1310" d="M154 32v1440q0 32 36 32h168q37 0 37 -30v-562q0 -33 26 -33h469q30 0 29 33v560q0 32 34 32h168q39 0 39 -30v-1439q0 -35 -37 -35h-167q-37 0 -37 32v607q0 32 -32 31h-461q-31 0 -31 -31v-604q0 -35 -34 -35h-168q-39 0 -39 32z"/>
<glyph unicode="I" horiz-adv-x="605" d="M178 32v1440q0 32 36 32h172q36 0 35 -32v-1437q0 -35 -35 -35h-172q-37 0 -36 32z"/>
<glyph unicode="J" horiz-adv-x="703" d="M-19 -138q2 12 50.5 33t102.5 51t90 74q74 87 74 255v1197q0 32 36 32h163q37 0 37 -32v-1199q0 -242 -96 -381q-109 -157 -359 -220q-9 -3 -17 -3q-30 0 -38 36l-41 125q-3 13 -3 22q0 5 1 10z"/>
<glyph unicode="K" horiz-adv-x="1259" d="M156 30v1442q0 32 34 32h178q29 0 29 -30v-555q0 -34 27 -7l463 570q22 22 51 22h188q22 0 28 -12q2 -4 2 -9q0 -8 -8 -18l-439 -542q-19 -27 12 -26q214 0 314 -136q76 -105 81 -268l35 -461q0 -32 -30 -32h-168q-32 0 -34 30l-29 440q-6 104 -40 152q-68 97 -194 97 t-192.5 -73.5t-66.5 -187.5v-426q0 -32 -29 -32h-182q-30 0 -30 30z"/>
<glyph unicode="L" horiz-adv-x="1069" d="M161 35v1437q0 32 34 32h170q35 0 35 -30v-1232q0 -15 3.5 -22.5t22.5 -7.5h566q35 0 34 -34v-141q0 -37 -31 -37h-797q-37 0 -37 35z"/>
<glyph unicode="M" horiz-adv-x="1547" d="M124 35v1420q0 49 49 49h122q32 0 44 -6.5t20.5 -24.5t30.5 -76.5t53.5 -141.5t68.5 -179.5t67 -178.5q70 -190 79 -209l107 -293q10 -19 23 -2q11 38 39.5 115t42.5 118.5t25 66.5l291 772q19 39 69 39h119q49 0 49 -46v-1421q0 -37 -37 -37h-158q-34 0 -33 32v860 q0 5 -4.5 6.5t-6.5 -3.5l-102 -276l-207 -533q-16 -40 -52 -40h-104q-19 0 -33 5t-23 30l-200 521l-100 285q-10 9 -10 0v-852q0 -35 -34 -35h-158q-37 0 -37 35z"/>
<glyph unicode="N" horiz-adv-x="1300" d="M149 32v1413q0 29 9.5 44t43.5 15h107q33 0 46 -11t25 -30l536 -968q3 -2 6.5 -2t3.5 2v975q0 34 34 34h156q37 0 37 -32v-1423q0 -49 -49 -49h-107q-30 0 -44.5 7t-26.5 30l-538 963q0 4 -5 4l-3 -4v-968q0 -32 -36 -32h-156q-39 0 -39 32z"/>
<glyph unicode="O" horiz-adv-x="1249" d="M144 416v679q0 198 137 316q133 115 343 115q206 0 341 -113q142 -119 142 -318v-679q0 -195 -137 -316q-129 -114 -344 -114q-210 0 -343 110q-139 115 -139 320zM383 419q0 -95 62 -158t176 -63t179 61.5t65 159.5v673q0 93 -63 157.5t-176.5 64.5t-178 -65t-64.5 -157 v-673z"/>
<glyph unicode="P" horiz-adv-x="1149" d="M154 35v1437q0 32 39 32h433q212 0 340 -128q123 -123 123 -318q0 -95 -34 -175.5t-96 -139.5q-133 -127 -331 -127h-209q-24 0 -24 -26v-555q0 -35 -37 -35h-165q-39 0 -39 35zM393 853q0 -30 26 -30h207q102 0 163.5 65t61.5 164t-60 170.5t-165 71.5h-205 q-29 0 -28 -27v-414z"/>
<glyph unicode="Q" horiz-adv-x="1249" d="M144 416v679q0 198 137 316q133 115 343 115q206 0 341 -113q142 -119 142 -318v-679q0 -170 -99 -281t-259 -137q-22 -3 -23 -33q2 -99 95 -99q40 0 146 32q15 8 27 8q19 0 25 -23l37 -97q4 -17 2 -29.5t-41.5 -35.5t-105 -35t-114.5 -12q-290 0 -290 296q0 25 -21 32 q-149 35 -245.5 141t-96.5 273zM383 419q0 -95 62 -158t176 -63t179 61.5t65 159.5v673q0 93 -63 157.5t-176.5 64.5t-178 -65t-64.5 -157v-673z"/>
<glyph unicode="R" horiz-adv-x="1212" d="M156 32v1438q0 34 34 34h456q226 0 342 -115t116 -314q0 -227 -220 -422q-12 -12 -8.5 -20.5t18.5 -39t46 -97.5q58 -130 208 -442q6 -14 6 -24q0 -11 -6 -17q-12 -13 -32 -13h-156q-44 0 -58.5 13.5t-26.5 37.5l-236 526q-11 23 -34 23h-189q-19 0 -19 -25v-540 q0 -35 -39 -35h-165q-37 0 -37 32zM395 835q0 -28 24 -28h2h267q24 0 43 14q63 47 96 115t33 117t-12.5 92.5t-40.5 76.5q-60 72 -186 72h-197q-30 0 -29 -27v-432z"/>
<glyph unicode="S" horiz-adv-x="1144" d="M61 204q0 14 20 35l92 95q19 17 32.5 12.5t33.5 -25.5q61 -58 142.5 -90.5t159.5 -32.5q137 0 209.5 58t72.5 160q0 139 -187 215q-54 22 -118.5 43.5t-138.5 55t-135 82.5q-137 110 -137 290q0 194 133 309q130 112 325 112q249 0 417 -116q24 -17 21 -32t-16 -35 l-61 -105q-12 -19 -29.5 -19t-65.5 26q-138 72 -249 72q-160 0 -216 -114q-20 -40 -20 -93.5t25.5 -88t64.5 -60t87.5 -44.5t111 -43t142 -58t143.5 -82.5t103.5 -123t39.5 -180.5t-39.5 -186t-108.5 -137q-139 -116 -369 -116q-139 0 -264.5 46.5t-202.5 138.5 q-18 17 -18 31z"/>
<glyph unicode="T" horiz-adv-x="1044" d="M39 1330v140q0 34 36 34h897q35 0 35 -32v-142q0 -36 -35 -36h-304q-30 0 -29 -24l-2 -1235q0 -35 -35 -35h-168q-39 0 -39 32l2 1235q0 12 -4.5 19.5t-24.5 7.5h-293q-37 0 -36 36z"/>
<glyph unicode="U" horiz-adv-x="1251" d="M144 407v1065q0 32 34 32h171q34 0 34 -30v-1067q0 -90 66.5 -149.5t176 -59.5t176 60.5t66.5 153.5v1060q0 32 36 32h168q37 0 37 -30v-1067q0 -190 -144 -311q-132 -110 -339 -110q-206 0 -341 109q-141 115 -141 312z"/>
<glyph unicode="V" horiz-adv-x="1125" d="M27 1458q-2 8 -2 15q0 31 40 31h174q35 0 42 -25l194 -770l93 -390q2 -7 5.5 -7t6.5 7l90 390l190 770q8 24 40 25h165q43 0 43 -29q0 -9 -4 -20l-395 -1425q-7 -30 -46 -30h-188q-37 0 -47 32z"/>
<glyph unicode="W" horiz-adv-x="1688" d="M24 1463q0 14 4 27.5t30 13.5h181q30 0 36 -34q42 -191 80 -380.5t79 -380.5l59 -314q4 -5 9 -5t11 40t22 118t28 152q42 197 81.5 389.5t81.5 389.5q6 25 42 25h158q32 0 39 -30l170 -774l62 -305q0 -7 7 -7t7 7q15 79 29.5 156t26.5 156l151 767q8 30 40 30h168 q38 0 38 -29q0 -7 -2 -17l-327 -1431q-7 -27 -41 -27h-187q-34 0 -42 24q-42 197 -83 394.5t-85 395.5l-49 246q0 3 -3.5 3t-9.5 -31.5t-18.5 -95.5t-38 -194t-68 -325.5t-82.5 -392.5q-9 -24 -43 -24h-185q-35 0 -42 21z"/>
<glyph unicode="X" horiz-adv-x="1135" d="M40 16q-2 6 -2 13q0 11 6 22q90 170 183.5 348t147 277.5t53.5 111.5t-14 35l-335 640q-8 19 1.5 31.5t36.5 12.5h178q39 0 61 -37q56 -112 107 -222t105 -222q11 -12 25 2l211 442q22 37 61 37h166q27 0 37.5 -15t-1.5 -37l-339 -639q-8 -14 -8 -30t8 -33 q93 -175 189.5 -354.5t189.5 -354.5q5 -10 5 -18t-4 -14q-8 -12 -36 -12h-170q-24 0 -37.5 5t-25.5 30l-254 506q-9 19 -22 0l-251 -506q-12 -28 -27 -31.5t-39 -3.5h-167q-33 0 -39 16z"/>
<glyph unicode="Y" horiz-adv-x="1095" d="M39 1458q-5 12 -5 21q0 25 34 25h166q24 0 38 -6.5t23 -27.5l242 -629q14 -16 21 -2q174 446 239 626q12 21 23 30t45 9h156q35 0 39 -14q1 -4 1 -9q0 -10 -5 -21l-377 -867q-11 -32 -11 -62v-494q0 -37 -37 -37h-168q-37 0 -37 35v502q0 29 -12 51z"/>
<glyph unicode="Z" horiz-adv-x="1049" d="M79 51v75q0 37 14 66t58 110t102.5 193t127 240t126.5 238.5t101 191.5t56 105.5t-20 23.5h-490q-35 0 -35 36v142q0 32 37 32h746q35 0 46.5 -11t11.5 -38v-78q0 -41 -32 -105l-542 -1030q-22 -30 11 -30h549q12 0 22.5 -7t10.5 -27v-143q0 -35 -33 -35h-809 q-32 0 -45 16t-13 35z"/>
<glyph unicode="[" horiz-adv-x="825" d="M234 -332v1974q0 35 31 35h379q30 0 28 -32v-136q0 -30 -28 -30h-147q-34 0 -34 -37v-1574q0 -37 34 -36h147q30 0 28 -30v-134q0 -30 -28 -29h-381q-30 0 -29 29z"/>
<glyph unicode="\" horiz-adv-x="756" d="M12 1606q-12 40 27 39h78q48 0 61 -34l566 -1728q11 -44 -28 -44h-85q-40 0 -51 35z"/>
<glyph unicode="]" horiz-adv-x="808" d="M121 -198q0 30 30 30h147q34 0 34 36v1574q0 35 -34 35h-147q-30 0 -30 32v133q0 35 30 35h377q32 0 32 -32v-1977q0 -30 -29 -29h-380q-30 0 -30 29v134z"/>
<glyph unicode="^" horiz-adv-x="1358" d="M198 1004l367 495q12 12 23.5 20.5t37.5 8.5h105q23 0 34.5 -6t27.5 -26l358 -482q29 -37 -13 -70l-56 -40q-24 -20 -70 27l-324 343q-22 31 -47 -4l-299 -351q-42 -42 -74 -22l-66 41q-39 24 -4 66z"/>
<glyph unicode="_" horiz-adv-x="1218" d="M-14 -237q0 28 31 28h1183q32 0 30 -28v-112q0 -29 -28 -28h-1185q-32 0 -31 26v114z"/>
<glyph unicode="`" horiz-adv-x="979" d="M293 1484q-30 37 7 58l126 76q29 20 54 -20l197 -328q19 -28 -9 -47l-59 -37q-33 -22 -56 9z"/>
<glyph unicode="a" horiz-adv-x="1095" d="M98 357q0 174 103.5 276t293.5 102q113 0 200 -51q37 -24 36 16v33q0 75 -46 123t-154 48q-77 0 -155 -22t-107 -35t-39 21l-44 109q-8 30 16 42q166 76 371.5 76t296 -108t90.5 -290v-667q0 -30 -27 -30h-161q-27 0 -26 24v34q0 17 -10 20t-34.5 -18.5t-88.5 -46.5 t-141 -25q-180 0 -277 97.5t-97 271.5zM312 366.5q0 -84.5 47.5 -140.5t148.5 -56t152.5 61.5t51.5 139.5t-50 136t-148 58t-150 -57t-52 -141.5z"/>
<glyph unicode="b" horiz-adv-x="1120" d="M132 30v1491q0 32 31 32h169q30 0 29 -30v-495q0 -26 14 -26q10 0 28 14q96 73 216 73t191.5 -33t117.5 -90q88 -108 88 -289v-280q0 -179 -104 -291q-111 -118 -291 -118q-173 0 -244 87q-28 29 -28 -12v-33q0 -30 -28 -30h-158q-32 0 -31 30zM361 397 q0 -88 54.5 -149.5t156.5 -61.5q103 0 157.5 54.5t54.5 156.5l4 280q0 88 -50 151.5t-153 63.5t-163.5 -63.5t-60.5 -151.5v-280z"/>
<glyph unicode="c" horiz-adv-x="1003" d="M105 395v277q0 191 129 306q128 114 322 114q243 0 382 -202q8 -14 8 -26q0 -19 -20 -33l-110 -78q-27 -19 -40 -8t-25 30q-37 56 -97.5 86.5t-102.5 30.5q-93 0 -153.5 -58.5t-60.5 -149.5v-294q0 -88 60.5 -145t151.5 -57q114 0 183 83q19 22 32 39.5t25.5 20.5 t33.5 -12l100 -66q30 -19 30 -39q0 -9 -7 -19q-139 -209 -395 -209q-202 0 -324 109.5t-122 299.5z"/>
<glyph unicode="d" horiz-adv-x="1120" d="M109 397v280q0 172 105 289q110 123 295 123q132 0 212 -63q19 -14 30.5 -14t11.5 26v485q0 30 32 30h168q32 0 32 -32v-1491q0 -30 -32 -30h-156q-19 0 -23.5 8.5t-6.5 21.5v21q-2 39 -26 14q-84 -79 -246 -79q-197 0 -300 119q-96 109 -96 292zM339 397 q0 -92 53.5 -151.5t152.5 -59.5t158.5 61.5t59.5 149.5l2 280q0 88 -52.5 151.5t-156 63.5t-160.5 -63.5t-57 -151.5v-280z"/>
<glyph unicode="e" horiz-adv-x="1091" d="M112 393v275q0 187 125 307t316 120q195 0 319 -117q123 -115 123 -308v-117q0 -27 -17.5 -45t-39.5 -18h-550q-21 0 -33.5 -13.5t-12.5 -30.5v-41q0 -88 58 -152.5t142 -64.5t136.5 35t78 66.5t36.5 35t30 -7.5l108 -68q40 -25 25 -51q-61 -112 -167.5 -162t-218.5 -50 t-194.5 29t-141.5 81q-122 109 -122 297zM353 682q-1 -3 -1 -6q0 -8 5 -13q6 -7 29 -7h349q28 0 28 37q-5 92 -58.5 147t-152.5 55t-145 -61.5t-54 -151.5z"/>
<glyph unicode="f" horiz-adv-x="711" d="M39 916v130q0 30 31 29h93q30 0 30 27v151q0 135 81 223q88 94 233 94q154 0 205 -38q8 -6 8 -22q0 -6 -1 -14l-24 -129q-5 -26 -31 -26q-11 0 -25 4q-62 15 -100 15q-120 0 -120 -137v-123q0 -24 30 -25h190q32 0 31 -29v-130q0 -32 -29 -32h-190q-32 0 -32 -28v-826 q0 -30 -31 -30h-167q-28 0 -28 30v823q0 32 -30 31h-95q-30 0 -29 32z"/>
<glyph unicode="g" horiz-adv-x="1105" d="M75 690q0 93 35.5 163t95.5 124q128 115 299 115q154 0 285 -88q14 -12 31 0q124 82 230 82q21 0 28 -9.5t7 -28.5v-136q0 -20 -5.5 -26.5t-33.5 -2.5t-49 4q-25 0 -38 -5q-26 -10 -37 -13.5t-4 -17.5q37 -70 37 -154.5t-36 -156.5t-97 -126q-126 -112 -318 -112l-56 -2 q-56 -7 -98 -51t-51 -93q-5 -19 17 -17q128 29 234.5 29t195 -17t159.5 -57q159 -91 159 -264q0 -99 -71 -189q-57 -73 -166 -127q-19 -9 -36 -9t-27 18l-63 102q-17 30 19 51q67 45 100 103q12 21 12 43q0 83 -74.5 114.5t-169.5 31.5q-123 0 -394 -36q-32 -5 -45 2.5 t-24 21.5q-48 67 -48 149q0 87 44 150q43 62 112 96q24 12 0 35q-70 51 -114.5 131t-44.5 173zM302 688.5q0 -79.5 53.5 -139t153.5 -59.5t156 58.5t56 139.5t-56 140t-151 59t-153.5 -59.5t-58.5 -139z"/>
<glyph unicode="h" horiz-adv-x="1151" d="M137 30v190l2 249v248l-2 443v361q0 32 28 32h172q30 0 28 -32v-488q0 -17 12.5 -21.5t44 18.5t91 41t118.5 18q192 0 291 -114.5t99 -297.5l2 -645q0 -32 -31 -32h-171q-32 0 -31 30v645q0 93 -51 154t-153 61t-159 -61t-57 -154v-253l-2 -390q0 -32 -29 -32h-171 q-32 0 -31 30z"/>
<glyph unicode="i" horiz-adv-x="518" d="M121 1387.5q0 57.5 42 98t99 40.5t100 -40.5t43 -96.5t-43 -96t-100 -40t-99 38.5t-42 96zM144 30v1014q0 31 27 31h2h171q32 0 31 -31v-1014q0 -30 -29 -30h-171q-32 0 -31 30z"/>
<glyph unicode="j" horiz-adv-x="547" d="M-75 -388l24 130q5 26 34 26q9 0 19 -2q24 -4 60 -4h15q93 2 93 133v1151q0 30 32 29h168q30 0 30 -29v-1178q0 -221 -162 -293q-57 -26 -123 -26q-86 0 -128.5 9.5t-54.5 18.5q-9 6 -9 20q0 7 2 15zM146 1387.5q0 57.5 40 98t99 40.5t100 -40.5t41 -96.5t-41 -97 t-99 -41q-59 0 -99.5 39.5t-40.5 97z"/>
<glyph unicode="k" horiz-adv-x="1100" d="M137 30v1491q0 32 28 32h172q30 0 28 -30v-816q0 -30 18 -30q7 0 17 11l331 368q16 16 48 16h210q21 0 25.5 -13t-5.5 -24l-314 -345q-7 -7 -7 -16t14 -11q251 -25 302 -260q15 -69 19 -147l10 -212q0 -44 -36 -44h-158q-21 0 -29 8.5t-10 28.5l-12 221q-8 160 -110 209 q-39 19 -98 19q-112 0 -162 -67.5t-50 -157.5v-231q0 -30 -29 -30h-174q-29 0 -28 30z"/>
<glyph unicode="l" horiz-adv-x="574" d="M151 309v1219q0 24 22 25h185q24 0 25 -23v-1206q0 -79 21.5 -102.5t81.5 -23.5h28q27 0 27 -42v-132q0 -22 -8.5 -29t-26.5 -10.5t-40 -3.5h-35q-158 0 -221 81q-59 75 -59 247z"/>
<glyph unicode="m" horiz-adv-x="1737" d="M130 30v649q0 180 116 294q122 119 307 119q93 0 172 -38t131 -96q16 -17 31 -2q48 56 132.5 96t181 40t172 -30.5t129.5 -85.5q109 -112 109 -297v-647q0 -32 -29 -32h-171q-29 0 -29 30v649q0 147 -109 196q-38 17 -85.5 17t-82.5 -18t-62 -48q-59 -64 -59 -147v-647 q0 -32 -28 -32h-168q-32 0 -32 30v649q0 87 -56 150t-144 63t-140.5 -63.5t-52.5 -149.5v-647q0 -32 -31 -32h-171q-32 0 -31 30z"/>
<glyph unicode="n" horiz-adv-x="1147" d="M132 30v1014q0 32 31 31h169q27 0 26 -29v-49q0 -37 38 2.5t116 64.5t144 25q188 0 275.5 -113t87.5 -297v-647q0 -32 -30 -32h-170q-32 0 -31 30v645q0 93 -52 154t-154 61t-159.5 -60t-57.5 -153v-645q0 -32 -31 -32h-169q-34 0 -33 30z"/>
<glyph unicode="o" horiz-adv-x="1115" d="M114 395v284q0 186 123 302q122 114 322.5 114t320.5 -108t120 -305v-282q0 -200 -117.5 -307t-324.5 -107t-325.5 107t-118.5 302zM346 400q0 -93 51.5 -153.5t155 -60.5t159.5 58t56 156v277q0 95 -54 155t-156 60t-157 -60t-55 -155v-277z"/>
<glyph unicode="p" horiz-adv-x="1125" d="M134 -407v1451q0 29 31 28h163q19 0 22 -8t3 -20v-23q0 -19 9.5 -22.5t48.5 26.5q76 61 199 61t195 -31.5t120 -87.5q94 -110 94 -292v-280q0 -175 -103 -289q-110 -123 -295 -123q-138 0 -214 63q-19 15 -31.5 15t-12.5 -26v-444q0 -30 -29 -30h-169q-32 0 -31 32z M363 395q0 -88 60 -151t154 -63q95 0 153 63t58 151v280q0 93 -55.5 152.5t-153 59.5t-157 -62t-59.5 -150v-280z"/>
<glyph unicode="q" horiz-adv-x="1125" d="M119 395v280q0 181 102 292q109 119 300 119q141 0 232 -79q12 -12 21.5 -8.5t9.5 20.5v25q0 12 3 20t22 8h163q32 0 32 -28v-1451q0 -32 -32 -32h-168q-29 0 -29 30v444q0 27 -12 26.5t-36 -18.5t-87 -39t-151.5 -21t-160.5 33t-119 90q-90 111 -90 289zM351 395 q0 -88 51 -151t152.5 -63t161 63t59.5 151v280q0 88 -55 150t-151.5 62t-157 -59.5t-60.5 -152.5v-280z"/>
<glyph unicode="r" horiz-adv-x="742" d="M139 30v1014q0 32 31 31h147q32 0 32 -29v-95q0 -12 8 -16t18 9q41 56 112 102t164 46q48 0 75 -10q29 -6 29 -30q0 -6 -2 -14l-37 -159q-4 -23 -13.5 -27t-27.5 0q-40 8 -73 8q-230 0 -230 -267v-561q0 -32 -30 -32h-169q-35 0 -34 30z"/>
<glyph unicode="s" horiz-adv-x="979" d="M79 241q0 10 14 17l126 63q19 10 26.5 5t19.5 -19q88 -132 240 -132q67 0 113.5 32t46.5 85.5t-34 80.5t-97 51l-157 53q-268 91 -268 298q0 148 116 234q106 80 265 80q230 0 368 -136q21 -21 0 -44l-81 -105q-12 -11 -24 -11t-44 24t-96 51t-106 27t-70 -6.5t-51 -19.5 q-52 -30 -52 -81q0 -79 131 -125q71 -24 147 -49.5t138 -64.5q142 -91 142 -239.5t-110 -235t-289 -86.5q-130 0 -242 53.5t-168 175.5q-4 14 -4 24z"/>
<glyph unicode="t" horiz-adv-x="767" d="M39 914v130q0 32 29 31h95q32 0 32 32v195q0 27 29 36l159 36q8 2 14 2q11 0 16 -6q8 -10 8 -22v-244q0 -29 32 -29h207q33 0 33 -29v-132q0 -30 -33 -30h-209q-30 0 -30 -26v-524q0 -63 24.5 -99.5t91.5 -36.5q54 0 107 10q28 6 44 6q15 0 20 -4q11 -10 16 -29l22 -118 q2 -9 2 -16q0 -13 -7 -19q-10 -8 -41 -20q-64 -22 -176 -22t-170.5 23t-94.5 64q-64 74 -64 217v568q0 27 -30 26h-92q-35 0 -34 30z"/>
<glyph unicode="u" horiz-adv-x="1135" d="M117 395v649q0 31 27 31h2h171q32 0 32 -29v-646q0 -93 50 -153.5t153.5 -60.5t160.5 59.5t57 151.5v647q0 31 30 31h2h168q32 0 32 -29v-1014q0 -32 -30 -32h-168q-27 0 -27 30v31q0 19 -9.5 18.5t-40 -28t-94 -46.5t-131.5 -19q-188 0 -286.5 113t-98.5 296z"/>
<glyph unicode="v" horiz-adv-x="1018" d="M35 1031q-5 12 -5 21q0 23 31 23h156q48 0 58 -40l144 -458l81 -284q5 -12 10.5 -12t10.5 9l76 275l144 463q5 12 16 29.5t40 17.5h161q22 1 28 -13q4 -8 3 -16q0 -6 -2 -13l-354 -1001q-9 -32 -51 -32h-143q-27 0 -36.5 6t-16.5 29z"/>
<glyph unicode="w" horiz-adv-x="1535" d="M27 1033q-3 9 -3 17t4 14q8 12 26 13h167q44 0 54 -42l83 -370l68 -321q2 -10 10 -10t10 10l88 314l115 370q10 49 51 49h128q17 0 29.5 -7t21.5 -37l135 -431l70 -258q2 -7 10 -8.5t10 8.5l147 689q11 44 56 44h163q32 0 32 -26q0 -8 -3 -18l-278 -994q-12 -39 -49 -39 h-134q-24 0 -35 5t-19 30l-138 440l-78 288q-10 19 -17 0l-81 -305l-131 -423q-7 -28 -19.5 -31.5t-31.5 -3.5h-135q-21 0 -33.5 6t-19.5 31z"/>
<glyph unicode="x" horiz-adv-x="965" d="M24 15q-2 5 -2 9q0 10 8 20l302 475q17 24 17 40t-15 38l-273 429q-15 24 -5.5 35t30.5 11h160q28 0 38.5 -3.5t24.5 -28.5l166 -284q9 -17 15.5 -14.5t16.5 18.5l161 280q14 24 25 28t38 4h161q36 0 36 -20q0 -10 -9 -26l-275 -429q-14 -27 -15 -40t12 -33l307 -480 q8 -12 8 -21q0 -5 -3 -11q-7 -12 -32 -12h-161q-27 0 -42.5 10.5t-33.5 40.5l-179 310q-19 29 -40 -5l-184 -321q-14 -24 -30.5 -29.5t-36.5 -5.5h-158q-27 0 -32 15z"/>
<glyph unicode="y" horiz-adv-x="1042" d="M39 1033q-4 12 -4 20q0 26 35 26h162q46 0 56 -39l107 -438l82 -363q5 -19 16.5 -20.5t18.5 20.5l248 794q8 17 19 31.5t42 14.5h144q41 0 41 -31q0 -9 -4 -22l-465 -1421q-13 -51 -74 -51h-121q-43 0 -43 34q0 14 6 32l109 341q5 16 5 27.5t-22 11.5h-25q-46 0 -60 49z "/>
<glyph unicode="z" horiz-adv-x="1010" d="M83 46v68q0 42 22 74l458 656q9 12 5.5 22.5t-22.5 10.5h-407q-32 0 -32 30v137q0 31 28 31h2h694q34 0 46.5 -12t12.5 -37v-80q0 -46 -20 -76l-446 -636q-19 -36 20 -36h453q32 0 31 -30v-136q0 -32 -28 -32h-763q-54 0 -54 46z"/>
<glyph unicode="{" horiz-adv-x="854" d="M95 609v105q0 27 14.5 36.5t64.5 33t96.5 77t46.5 143.5v303q0 195 94 279t291 84h37q24 0 24 -28v-133q0 -32 -32 -32h-24q-95 0 -130 -35q-31 -31 -31 -131v-360q0 -86 -45 -156.5t-118 -115.5q-27 -19 0 -30q81 -42 122 -130t41 -166v-365q0 -99 24.5 -125t56 -33.5 t80.5 -7.5h24q32 0 32 -34v-134q0 -28 -24 -26h-37q-197 0 -290 83.5t-93 278.5l-2 336q0 90 -45.5 146t-98 76t-65.5 31t-13 30z"/>
<glyph unicode="|" horiz-adv-x="562" d="M195 -251v1869q0 30 31 29h106q32 0 31 -26v-1870q0 -32 -29 -32h-104q-35 0 -35 30z"/>
<glyph unicode="}" horiz-adv-x="854" d="M83 -212q0 35 31 34h25q100 0 131.5 34.5t31.5 131.5v365q0 79 42 166.5t121 129.5q28 11 0 30q-72 45 -117.5 115.5t-45.5 156.5v360q0 96 -31.5 131t-131.5 35h-25q-32 0 -31 32v133q0 28 24 28h37q198 0 292.5 -84t94.5 -279v-303q0 -90 45 -143.5t97 -77t66 -33 t14 -36.5v-105q0 -19 -13.5 -30t-65.5 -31t-97.5 -76t-45.5 -146l-3 -336q0 -195 -93 -278.5t-291 -83.5h-37q-24 0 -24 26v134z"/>
<glyph unicode="~" d="M39 684q-39 31 51 123q67 68 166 96q46 13 102 13t118.5 -22t122 -50t118 -51t113 -24t89 30.5t65 63.5t64.5 2l80 -63q42 -34 18 -69q-54 -83 -133.5 -131.5t-160.5 -48.5t-148 23.5t-131 52.5t-120 52t-102 23t-81.5 -19.5t-79.5 -75.5q-27 -27 -53 -4z"/>
<glyph unicode="¡" horiz-adv-x="656" d="M200 929.5q0 59.5 43 102.5t104.5 43t105.5 -43t44 -101.5t-44 -99.5t-104.5 -41t-104.5 40t-44 99.5zM226 -424l42 1045q0 25 22 25h107q12 0 18 -9t6 -13l49 -1045q0 -30 -29 -30h-185q-30 0 -30 27z"/>
<glyph unicode="¢" d="M175 395v277q0 166 94 272.5t245 137.5q10 2 23.5 7.5t13.5 24.5v114q0 27 29 27h90q30 0 30 -27v-107q0 -30 10.5 -33.5t28.5 -8.5q158 -32 270 -189q21 -34 -12 -59l-110 -78q-28 -19 -41 -8t-25 30q-37 56 -97.5 86.5t-102.5 30.5q-93 0 -153.5 -58.5t-60.5 -149.5 v-294q0 -88 60.5 -145t151.5 -57q114 0 184 83q18 22 31 39.5t25.5 20.5t35.5 -12l100 -66q44 -29 21 -58q-109 -160 -281 -197q-27 -5 -31 -16.5t-4 -23.5v-104q0 -30 -30 -29h-90q-30 0 -29 26v107q0 28 -15 31.5t-24 5.5q-156 30 -246.5 134.5t-90.5 265.5z"/>
<glyph unicode="£" d="M83 30v133q0 27 34 39q101 29 112 149q3 32 3 58v219q0 17 -5.5 24.5t-24.5 10.5h-85q-30 0 -29 30v133q0 30 29 30h85q30 0 30 34v196q0 194 123 315q125 125 333 125q294 0 407 -217q13 -33 -16 -49l-121 -74q-33 -20 -56 14q-72 126 -214 126q-107 0 -165 -58.5 t-58 -151.5v-224q0 -34 32 -34h106.5t142.5 -2q32 0 31 -28v-133q0 -32 -28 -32l-197 2h-52q-35 0 -35 -34v-129q0 -86 -7 -157.5t-42 -120.5q-4 -10 -3 -17t15 -5h574q32 0 31 -29v-141q0 -34 -29 -34l-230 2h-660q-32 0 -31 30z"/>
<glyph unicode="¤" horiz-adv-x="1198" d="M129 951q-3 9 17 28l80 79q24 24 49 2l105 -114q89 63 215 63q115 0 214 -63l119 114q10 12 27 14.5t29 -14.5l76 -76q30 -30 3 -53l-117 -112q66 -95 66 -221t-64 -223l110 -105q26 -26 2 -51l-83 -80q-21 -21 -50 3.5t-56 50.5t-57 53q-107 -65 -221.5 -65t-212.5 72 l-117 -116h2q-21 -32 -51 -3l-82 80q-28 23 0 49l117 125q-63 103 -63 215.5t63 210.5q-64 73 -105 114q-12 14 -15 23zM370 596.5q0 -94.5 67.5 -161.5t162.5 -67t160.5 67t65.5 162q0 96 -65.5 162.5t-160.5 66.5q-97 0 -163 -67q-67 -68 -67 -162.5z"/>
<glyph unicode="¥" d="M83 1458q-20 46 26 46h168q24 0 34 -5.5t23 -28.5l241 -600q7 -17 17 -19.5t17 17.5l242 597q9 21 21 30t40 9h155q47 0 28 -44l-235 -539q-13 -26 15 -26h181q29 0 28 -30v-95q0 -32 -28 -31h-912q-32 0 -32 29v97q0 30 32 30h156q12 0 15.5 10.5t-1.5 20.5zM112 502v98 q0 30 32 28h912q11 0 19.5 -8t8.5 -20v-98q0 -30 -28 -30h-323q-19 0 -24 -10.5t-5 -27.5v-404q0 -30 -32 -30h-167q-33 0 -33 30v401q0 14 -4.5 26.5t-30.5 12.5h-293q-32 0 -32 32z"/>
<glyph unicode="¦" horiz-adv-x="552" d="M200 -258l2 863q0 21 24 21h116q23 0 23 -19l-2 -865q-5 -22 -21 -23h-118q-24 0 -24 23zM200 756v870q0 21 24 21h115q24 0 24 -19v-872q-5 -22 -21 -23h-118q-24 0 -24 23z"/>
<glyph unicode="§" horiz-adv-x="1123" d="M151 17q0 15 19 34l86 75q36 26 71.5 -16t108.5 -73.5t128 -31.5t93 7t68 22q68 33 68 91t-52.5 93t-134 62t-155.5 58.5t-131 74.5q-127 95 -127 220q0 175 197 269q15 10 30.5 10t30.5 -25l46 -90q5 -14 5 -22q0 -22 -25 -31q-27 -17 -49.5 -43t-22.5 -64 q0 -75 202 -144q81 -30 154.5 -60.5t130.5 -71.5q124 -92 124 -224q0 -149 -129 -232q-121 -78 -327 -78q-104 0 -220 43.5t-182 129.5q-7 7 -7 17zM190 1311q0 130 108.5 215t296.5 85q95 0 200 -39t172 -127q8 -7 8 -19t-19 -33l-79 -74q-14 -15 -29.5 -15t-35.5 24 q-92 102 -231 102q-67 0 -119.5 -26.5t-52.5 -81.5t43 -88.5t137 -67t163 -64t121 -67.5q114 -81 114 -209q0 -202 -190 -285q-14 -4 -31 -4t-22 14l-54 109q-2 3 -2 18.5t26 25.5q58 33 58 98q0 90 -144 145q-43 16 -103.5 38t-124 50t-110.5 65q-100 81 -100 211z"/>
<glyph unicode="¨" horiz-adv-x="1128" d="M214 1338.5q0 54.5 38 93t93 38.5t92.5 -38.5t37.5 -93t-36.5 -91t-92.5 -36.5t-94 36.5t-38 91zM626 1338.5q0 54.5 37 93t93 38.5t93.5 -38.5t37.5 -93t-36.5 -91t-92.5 -36.5t-94 36.5t-38 91z"/>
<glyph unicode="©" horiz-adv-x="1721" d="M149 585v331q0 271 200 429q200 159 516 159q320 0 519 -154q205 -158 205 -434v-331q0 -278 -205 -433q-201 -152 -519 -152q-321 0 -516 158q-200 161 -200 427zM273 580q0 -199 146 -328q163 -143 444 -143q283 0 448 141q154 131 154 330v343q0 206 -154 335 q-163 135 -448 135q-286 0 -444 -139q-146 -131 -146 -331v-343zM588 575v322q0 124 81.5 196t209.5 72q187 0 256 -134q10 -22 -9 -31l-73 -52q-21 -14 -34 10q-49 81 -140 80q-63 0 -104.5 -39t-41.5 -102v-322q0 -61 40.5 -99.5t95.5 -38.5q96 0 147 75q18 23 40 9 l79 -51q7 -5 8.5 -13t-3.5 -13q-92 -137 -263 -137q-130 0 -209.5 69.5t-79.5 198.5z"/>
<glyph unicode="ª" horiz-adv-x="740" d="M58 826q0 114 77 181.5t204 67.5q79 0 122 -37q16 -17 16 6v12q0 44 -25.5 68t-76.5 24q-108 0 -194 -34q-24 -10 -35 16l-25 74q-9 24 21 42q84 48 233 48q285 0 285 -259v-409q0 -19 -4.5 -26t-24.5 -7h-110q-30 0 -28 26v12q0 14 -16 6q-64 -52 -173 -52t-177.5 63.5 t-68.5 177.5zM239 833q0 -44 31.5 -75.5t84 -31.5t81.5 31.5t29 75.5t-32.5 73t-81.5 29t-80.5 -29t-31.5 -73z"/>
<glyph unicode="«" horiz-adv-x="1249" d="M131.5 495q2.5 24 24.5 51l281 351q14 17 30 27.5t49 10.5h140q29 0 37.5 -15.5t-9.5 -35.5l-296 -368q-14 -19 -13.5 -27.5t11.5 -20.5l293 -361q17 -19 7.5 -38.5t-30.5 -19.5h-137q-30 0 -46.5 10.5t-41.5 38.5l-275 339q-27 34 -24.5 58zM592 495q3 24 22 51l283 351 q15 17 31 27.5t49 10.5h139q30 0 38.5 -15.5t-8.5 -35.5l-298 -368q-14 -19 -13.5 -27.5t11.5 -20.5l294 -361q17 -19 7.5 -38.5t-31.5 -19.5h-137q-29 0 -46 10.5t-41 38.5l-276 339q-27 34 -24 58z"/>
<glyph unicode="¬" d="M95 607v100q0 14 12 23t27 9h917q12 0 23.5 -11.5t11.5 -23.5v-499q0 -32 -26 -32h-104q-30 0 -30 29v339q0 29 -24 29h-765q-17 0 -29.5 11.5t-12.5 25.5z"/>
<glyph unicode="­" horiz-adv-x="808" d="M119 512v125q0 29 30 28h492q33 0 31 -26v-127q0 -30 -28 -29h-493q-32 0 -32 29z"/>
<glyph unicode="®" horiz-adv-x="996" d="M102 1070v178q0 151 109.5 237.5t283.5 86.5q176 0 283 -86q114 -91 114 -238v-178q0 -149 -114 -239q-105 -82 -280.5 -82t-285.5 85t-110 236zM186 1067q0 -97 75.5 -170.5t232.5 -73.5t236 72t79 172v186q0 102 -79 172.5t-236 70.5t-232.5 -72.5t-75.5 -170.5v-186z M363 951v416q0 19 20 19h133q73 0 110 -37.5t37 -81.5q0 -83 -66 -123q-12 -5 -4 -21l72 -160q11 -32 -16 -32h-47q-9 2 -15.5 4.5t-11.5 15.5l-66 153q-2 12 -14 12h-44v-163q0 -21 -17 -22h-51q-19 0 -20 20zM449 1189h67q20 0 39.5 18.5t19.5 45.5q0 56 -59 56h-67v-120z "/>
<glyph unicode="¯" horiz-adv-x="1095" d="M288 1291v100q0 37 36 37h509q39 0 39 -35v-102q0 -37 -37 -36h-509q-39 0 -38 36z"/>
<glyph unicode="°" horiz-adv-x="759" d="M75 1272q0 121 84 198q89 81 219.5 81t212 -81t81.5 -197t-88.5 -198.5t-213.5 -82.5t-210 80.5t-85 199.5zM224 1272q0 -63 41.5 -107t102.5 -44q60 0 105.5 44t45.5 106t-41 104.5t-103.5 42.5t-106.5 -41.5t-44 -104.5z"/>
<glyph unicode="±" d="M81 63v69q0 49 58 49h875q58 0 58 -49v-67q0 -53 -58 -53h-875q-58 0 -58 51zM112 739v84q0 42 44 42h337q21 0 21 19v339q0 42 42 42h95q44 0 44 -42v-333q0 -14 3.5 -19.5t17.5 -5.5h347q41 0 41 -42v-82q0 -44 -41 -44h-347q-14 0 -17.5 -2t-3.5 -16v-340 q0 -39 -42 -39h-95q-44 0 -44 39v340q0 17 -21 18h-337q-44 0 -44 42z"/>
<glyph unicode="²" horiz-adv-x="756" d="M73 833v64q0 39 22 68l333 393q65 75 65 119t-32.5 74.5t-83.5 30.5t-81.5 -21t-49.5 -40q-32 -37 -63 -19l-76 49q-17 14 -17 26t12 29q98 129 278 129q123 0 209 -65.5t86 -183.5q0 -94 -103 -216q-30 -33 -96.5 -112t-100 -117.5t-50 -58t-14 -25.5t7.5 -6h332 q34 0 33 -35v-83q0 -37 -33 -36h-539q-22 0 -30.5 7.5t-8.5 28.5z"/>
<glyph unicode="³" horiz-adv-x="756" d="M61 959.5q0 12.5 20 22.5l73 39q17 12 31.5 12t26.5 -19q51 -73 114.5 -73t100 30.5t36.5 79.5v63q0 46 -34 77.5t-85 31.5h-98q-21 0 -29 7.5t-8 24.5v80q0 37 35 37h100q53 0 85 29t32 75.5t-33 74.5t-101.5 28t-107.5 -56q-17 -30 -35.5 -30t-27.5 6l-73 43 q-32 16 -10 62q89 129 269 129q136 0 217.5 -68.5t81.5 -185.5q0 -109 -100 -177q-4 -5 -4 -8l4 -5q52 -22 77.5 -69.5t25.5 -96.5v-63q0 -126 -83.5 -198t-199 -70.5t-184 33t-112.5 108.5q-4 14 -4 26.5z"/>
<glyph unicode="´" horiz-adv-x="1086" d="M446 1270l198 328q9 14 24.5 22t28.5 1l126 -79q24 -14 21 -30t-13 -26l-261 -291q-10 -12 -26 -15t-30 6l-58 37q-28 17 -10 47z"/>
<glyph unicode="¶" horiz-adv-x="1176" d="M86 1146q0 169 115 287q120 122 292 122h202q12 0 20.5 -9t8.5 -20v-754q0 -27 -29 -26h-202q-180 0 -293 116q-114 116 -114 284zM544 -93q-6 35 24 39q157 18 218 84q53 57 53 182v1314q0 11 8.5 20t20.5 9h144q14 0 23 -9t9 -20v-1319q0 -419 -454 -444 q-12 0 -19.5 3.5t-12.5 24.5z"/>
<glyph unicode="·" horiz-adv-x="537" d="M124 568.5q0 59.5 42.5 102.5t102 43t103.5 -43t44 -101t-42.5 -101t-103.5 -43t-103.5 41.5t-42.5 101z"/>
<glyph unicode="¸" horiz-adv-x="998" d="M337 -402l40 53q17 19 26 15.5t31 -13.5q56 -28 103.5 -28t73.5 20.5t26 50t-16 54t-72 24.5h-72q-41 0 -62.5 24t-9.5 65l44 167q8 33 28 33h79q12 0 15.5 -13t-1.5 -26l-29 -122q0 -9 17 -9h24q86 0 139.5 -52.5t53.5 -135.5t-63.5 -142.5t-172 -59.5t-195.5 58 q-22 14 -7 37z"/>
<glyph unicode="¹" horiz-adv-x="689" d="M121 1472v88q0 31 30 51l177 100q17 10 40 10h63q27 0 33 -11.5t6 -30.5v-846q0 -37 -36 -36h-102q-42 0 -42 36v658q0 17 -13 8l-91 -46q-28 -14 -46.5 -9.5t-18.5 28.5z"/>
<glyph unicode="º" horiz-adv-x="749" d="M68 841v178q0 119 84.5 192t219.5 73q137 0 223.5 -69t86.5 -196v-173q0 -132 -85 -203t-223 -71t-222 71t-84 198zM251 844q0 -49 33 -82.5t90 -33.5t89 32.5t37 83.5v172q0 49 -34.5 80.5t-89.5 31.5t-90 -31.5t-35 -80.5v-172z"/>
<glyph unicode="»" horiz-adv-x="1249" d="M126 919q8 16 37 16h139q35 0 50.5 -10.5t30.5 -27.5l282 -351q19 -27 22 -51.5t-24 -57.5l-275 -339q-24 -28 -42 -38.5t-46 -10.5h-137q-21 0 -31.5 19.5t7.5 38.5l295 361q10 12 11 20.5t-14 27.5l-297 368q-16 19 -8 35zM586.5 919q8.5 16 37.5 16h139 q34 0 49.5 -10.5t31.5 -27.5l279 -351q22 -27 25 -51.5t-25 -57.5l-275 -339q-23 -28 -40.5 -38.5t-47.5 -10.5h-136q-22 0 -32 19.5t8 38.5l295 361q9 12 10.5 20.5t-13.5 27.5l-297 368q-17 19 -8.5 35z"/>
<glyph unicode="¼" horiz-adv-x="1779" d="M151 1253v87q0 34 30 51l177 100q17 10 39 11h64q27 0 33 -11.5t6 -30.5v-846q0 -37 -37 -37h-102q-42 0 -42 37v658q0 17 -12 7l-93 -46q-27 -14 -45 -9.5t-18 29.5zM395 -42l682 1597q11 22 39 22h81q28 0 30.5 -11t-4.5 -29l-682 -1591q-7 -19 -32 -19h-95 q-31 0 -19 31zM914 221v54q0 41 14 71l300 566q10 11 32 11h129q12 0 19.5 -5.5t-1.5 -20.5l-279 -534q-5 -5 -2.5 -11t14.5 -6h154q11 0 15.5 7.5t4.5 11.5v186q0 19 21 19h128q21 0 21 -21v-181q0 -22 18 -22h89q24 0 25 -20v-105q0 -21 -23 -21h-86q-22 0 -23 -19v-160 q0 -21 -21 -21h-130q-19 0 -19 21v160q0 19 -25 19h-351q-24 0 -24 21z"/>
<glyph unicode="½" horiz-adv-x="1779" d="M156 1253v87q0 34 30 51l177 100q17 10 39 11h63q28 0 34 -11.5t6 -30.5v-846q0 -37 -37 -37h-103q-41 0 -41 37v658q0 17 -12 7l-93 -46q-27 -14 -45 -9.5t-18 29.5zM365 -42l683 1597q11 22 38 22h81q28 0 31.5 -11t-3.5 -29l-683 -1591q-8 -19 -32 -19h-94 q-33 0 -21 31zM984 35v63q0 21 2.5 33.5t20.5 33.5l333 393q64 76 64 119.5t-32 74t-83 30.5q-74 0 -118.5 -49t-75.5 -31l-76 51q-30 22 -5 54q98 128 277 128q124 0 209.5 -65.5t85.5 -181.5q0 -100 -102 -216q-27 -32 -60 -70.5t-68 -79.5t-69 -80.5t-50 -59t-13.5 -25.5 t6.5 -6h332q35 0 34 -34v-82q0 -37 -34 -37h-539q-21 0 -30 7t-9 30z"/>
<glyph unicode="¾" horiz-adv-x="1779" d="M109 740q0 12 21 23l72 39q18 12 32.5 12t26.5 -19q51 -73 114.5 -73.5t100 30t36.5 79.5v64q0 46 -34 77.5t-85 31.5h-98q-37 0 -37 31v81q0 37 35 37h100q53 0 84.5 29t31.5 75.5t-32.5 74.5t-101 28t-107.5 -56q-17 -30 -35.5 -30t-27.5 5l-73 44q-33 17 -11 61 q91 130 269 130q137 0 218.5 -68.5t81.5 -185.5q0 -108 -100 -178q-5 -5 -5 -7l5 -5q51 -22 77 -69.5t26 -96.5v-63q0 -126 -83.5 -198.5t-199 -71.5t-184 33.5t-112.5 109.5q-5 14 -5 26zM468 -42l683 1597q10 22 38 22h81q27 0 30.5 -11t-3.5 -29l-683 -1591 q-8 -19 -32 -19h-94q-33 0 -20 31zM979 221v54q0 42 16 71l299 566q9 11 32 11h129q12 0 19.5 -5.5t-2.5 -20.5l-277 -534q-5 -5 -2.5 -11t14.5 -6h153q19 0 19 19v186q0 19 23 19h126q21 0 23 -21v-181q0 -22 16 -22h91q23 0 23 -20v-105q0 -21 -21 -21h-88q-21 0 -21 -19 v-160q0 -21 -23 -21h-129q-19 0 -20 21v160q0 19 -24 19h-351q-23 0 -25 21z"/>
<glyph unicode="¿" horiz-adv-x="1212" d="M207 -65q0 108 72 207.5t171 160t156 120.5t57 152v46q0 12 9.5 21t22.5 9h161q23 0 32 -9t9 -35v-73q0 -93 -53.5 -185.5t-150.5 -155.5q-100 -68 -168.5 -127t-74.5 -137t51 -141t146.5 -63t138.5 34t96 97q23 29 51 10l115 -75q28 -19 10 -54q-123 -212 -402 -212 q-197 0 -320 103q-129 107 -129 307zM637 929.5q0 59.5 42 102.5t104 43t105 -43t43 -101.5t-42.5 -99.5t-105 -41t-104.5 40t-42 99.5z"/>
<glyph unicode="À" horiz-adv-x="1144" d="M44 44l358 1428q7 32 44 32h244q17 0 26.5 -5.5t14.5 -24.5l369 -1428q4 -11 0.5 -28.5t-30.5 -17.5h-173q-34 0 -41 24l-68 281q-5 12 -8 16.5t-15 4.5h-395q-14 0 -16.5 -6t-7.5 -13l-65 -283q-7 -24 -39 -24h-161q-49 0 -37 44zM185 1764q-10 15 8 36l90 121 q10 12 26.5 12t29.5 -12l307 -232q30 -22 7 -47l-39 -56q-26 -26 -56 -14l-351 173q-12 4 -22 19zM405 546q-5 -22 14 -22h295q21 0 14 22l-91 389l-65 293q-2 10 -7 10t-7 -8l-61 -286z"/>
<glyph unicode="Á" horiz-adv-x="1144" d="M44 44l358 1428q7 32 44 32h244q17 0 26.5 -5.5t14.5 -24.5l369 -1428q4 -11 0.5 -28.5t-30.5 -17.5h-173q-34 0 -41 24l-68 281q-5 12 -8 16.5t-15 4.5h-395q-14 0 -16.5 -6t-7.5 -13l-65 -283q-7 -24 -39 -24h-161q-49 0 -37 44zM405 546q-5 -22 14 -22h295q21 0 14 22 l-91 389l-65 293q-2 10 -7 10t-7 -8l-61 -286zM453 1642q-21 24 8 47l307 232q11 12 28.5 12t26.5 -12l91 -121q17 -21 7.5 -36t-21.5 -19l-356 -178q-30 -12 -51 19z"/>
<glyph unicode="Â" horiz-adv-x="1144" d="M44 44l358 1428q7 32 44 32h244q17 0 26.5 -5.5t14.5 -24.5l369 -1428q4 -11 0.5 -28.5t-30.5 -17.5h-173q-34 0 -41 24l-68 281q-5 12 -8 16.5t-15 4.5h-395q-14 0 -16.5 -6t-7.5 -13l-65 -283q-7 -24 -39 -24h-161q-49 0 -37 44zM205 1674l234 229q12 12 21.5 19.5 t29.5 7.5h122q28 0 53 -27l232 -233q30 -30 0 -52l-53 -46q-12 -10 -23.5 -5t-27.5 15l-230 151q-14 9 -29 0l-225 -154q-16 -12 -26 -13t-27 11l-49 46q-31 22 -2 51zM405 546q-5 -22 14 -22h295q21 0 14 22l-91 389l-65 293q-2 10 -7 10t-7 -8l-61 -286z"/>
<glyph unicode="Ã" horiz-adv-x="1144" d="M44 44l358 1428q7 32 44 32h244q17 0 26.5 -5.5t14.5 -24.5l369 -1428q4 -11 0.5 -28.5t-30.5 -17.5h-173q-34 0 -41 24l-68 281q-5 12 -8 16.5t-15 4.5h-395q-14 0 -16.5 -6t-7.5 -13l-65 -283q-7 -24 -39 -24h-161q-49 0 -37 44zM200 1696q32 60 87 100.5t106 40.5 t88.5 -13t74.5 -29q97 -42 128 -42q53 0 93 65q12 24 39 10l76 -44q27 -17 10 -51q-39 -75 -96 -109.5t-105 -34.5t-84.5 12.5t-72.5 27.5q-91 41 -136 41t-89 -66q-23 -23 -51 0l-63 45q-18 14 -5 47zM405 546q-5 -22 14 -22h295q21 0 14 22l-91 389l-65 293q-2 10 -7 10 t-7 -8l-61 -286z"/>
<glyph unicode="Ä" horiz-adv-x="1144" d="M44 44l358 1428q7 32 44 32h244q17 0 26.5 -5.5t14.5 -24.5l369 -1428q4 -11 0.5 -28.5t-30.5 -17.5h-173q-34 0 -41 24l-68 281q-5 12 -8 16.5t-15 4.5h-395q-14 0 -16.5 -6t-7.5 -13l-65 -283q-7 -24 -39 -24h-161q-49 0 -37 44zM212 1704.5q0 55.5 38 93t92.5 37.5 t92 -37.5t37.5 -92t-36 -91.5t-92 -37t-94 36t-38 91.5zM405 546q-5 -22 14 -22h295q21 0 14 22l-91 389l-65 293q-2 10 -7 10t-7 -8l-61 -286zM624 1704.5q0 55.5 36.5 93t92.5 37.5t93.5 -37.5t37.5 -92t-36 -91.5t-92 -37t-94 36t-38 91.5z"/>
<glyph unicode="Å" horiz-adv-x="1144" d="M44 44l358 1428q7 32 44 32h244q17 0 26.5 -5.5t14.5 -24.5l369 -1428q4 -11 0.5 -28.5t-30.5 -17.5h-173q-34 0 -41 24l-68 281q-5 12 -8 16.5t-15 4.5h-395q-14 0 -16.5 -6t-7.5 -13l-65 -283q-7 -24 -39 -24h-161q-49 0 -37 44zM334 1749q0 92 63 154q66 66 156.5 66 t154.5 -61.5t64 -151t-63 -154.5t-153 -65t-156 61t-66 151zM405 546q-5 -22 14 -22h295q21 0 14 22l-91 389l-65 293q-2 10 -7 10t-7 -8l-61 -286zM453 1753q0 -44 29.5 -75t70.5 -31q42 0 73.5 31t31.5 74t-31.5 75.5t-73.5 32.5q-41 0 -70.5 -32t-29.5 -75z"/>
<glyph unicode="Æ" horiz-adv-x="1812" d="M40 16q-3 16 2 35q48 132 120 319.5t148 388.5t147 388.5t120 319.5q15 37 56 37h1058q37 0 37 -32v-142q0 -36 -35 -36h-570q-29 0 -28 -24v-366q0 -29 26 -29h470q35 0 35 -34v-141q0 -37 -33 -37h-472q-27 0 -26 -30v-391q0 -12 3.5 -21t22.5 -9h583q35 0 33 -34v-143 q0 -35 -33 -35h-814q-37 0 -37 32v285q0 11 -3.5 23.5t-28.5 12.5h-409q-15 0 -18.5 -5.5t-7.5 -15.5l-111 -302q-10 -30 -41 -30h-164q-27 0 -30 16zM472 580q-9 -20 14 -20h335q32 0 32 33v681q0 20 -22 20h-85q-19 0 -30 -20z"/>
<glyph unicode="Ç" horiz-adv-x="1098" d="M144 409v693q0 193 129 308.5t329 115.5q119 0 229 -40.5t202 -162.5q25 -30 -10 -58l-111 -88q-15 -12 -32 -6t-27 20q-41 56 -107.5 89.5t-157.5 33.5t-148 -62.5t-57 -154.5v-688q0 -90 61 -150.5t150 -60.5q155 0 259 116q12 12 25.5 23.5t33.5 -3.5l121 -85 q30 -17 13 -49q-143 -204 -405 -214l-20 -84q0 -9 18 -9h24q86 0 139.5 -52.5t53.5 -134.5t-63.5 -142.5t-172.5 -60.5t-196 58q-22 14 -8 37l42 53q17 19 26 15.5t30 -13.5q55 -28 103 -28t73.5 20.5t25.5 50t-16 54t-72 24.5h-70q-42 0 -64 24t-8 65l33 130 q-168 21 -271.5 131t-103.5 285z"/>
<glyph unicode="È" horiz-adv-x="1105" d="M149 35v1435q0 34 37 34h796q37 0 37 -34v-140q0 -36 -35 -36h-568q-29 0 -28 -24v-354q0 -32 28 -32h468q35 0 35 -36v-139q0 -34 -32 -34h-471q-29 0 -28 -29v-404q0 -30 31 -30h576q34 0 33 -34v-141q0 -37 -33 -37h-809q-37 0 -37 35zM202.5 1764q-9.5 15 6.5 36 l91 121q9 12 26.5 12t29.5 -12l307 -232q30 -22 7 -47l-39 -56q-26 -25 -56 -14l-351 173q-12 4 -21.5 19z"/>
<glyph unicode="É" horiz-adv-x="1105" d="M149 35v1435q0 34 37 34h796q37 0 37 -34v-140q0 -36 -35 -36h-568q-29 0 -28 -24v-354q0 -32 28 -32h468q35 0 35 -36v-139q0 -34 -32 -34h-471q-29 0 -28 -29v-404q0 -30 31 -30h576q34 0 33 -34v-141q0 -37 -33 -37h-809q-37 0 -37 35zM405 1642q-22 24 7 47l307 232 q12 12 29 12t27 -12l90 -121q17 -21 7.5 -36t-21.5 -19l-356 -178q-30 -12 -51 19z"/>
<glyph unicode="Ê" horiz-adv-x="1105" d="M149 35v1435q0 34 37 34h796q37 0 37 -34v-140q0 -36 -35 -36h-568q-29 0 -28 -24v-354q0 -32 28 -32h468q35 0 35 -36v-139q0 -34 -32 -34h-471q-29 0 -28 -29v-404q0 -30 31 -30h576q34 0 33 -34v-141q0 -37 -33 -37h-809q-37 0 -37 35zM202 1674l235 229 q12 12 21.5 19.5t29.5 7.5h121q29 0 54 -27l232 -233q30 -30 0 -52l-54 -46q-12 -10 -23 -5t-28 15l-230 151q-14 9 -29 0l-224 -154q-17 -12 -27 -13t-27 11l-48 46q-32 22 -3 51z"/>
<glyph unicode="Ë" horiz-adv-x="1105" d="M149 35v1435q0 34 37 34h796q37 0 37 -34v-140q0 -36 -35 -36h-568q-29 0 -28 -24v-354q0 -32 28 -32h468q35 0 35 -36v-139q0 -34 -32 -34h-471q-29 0 -28 -29v-404q0 -30 31 -30h576q34 0 33 -34v-141q0 -37 -33 -37h-809q-37 0 -37 35zM244 1704.5q0 55.5 37.5 93 t92 37.5t93 -37.5t38.5 -92t-37 -91.5t-93 -37t-93.5 36t-37.5 91.5zM656 1704.5q0 55.5 36 93t92 37.5t94 -37.5t38 -92t-36 -91.5t-92 -37t-94 36t-38 91.5z"/>
<glyph unicode="Ì" horiz-adv-x="605" d="M-78 1764q-10 15 8 36l89 121q10 12 27 12t29 -12l308 -232q30 -22 7 -47l-39 -56q-26 -26 -56 -14l-351 173q-12 4 -22 19zM178 32v1440q0 32 36 32h172q36 0 35 -32v-1437q0 -35 -35 -35h-172q-37 0 -36 32z"/>
<glyph unicode="Í" horiz-adv-x="605" d="M178 32v1440q0 32 36 32h172q36 0 35 -32v-1437q0 -35 -35 -35h-172q-37 0 -36 32zM212 1642q-22 24 7 47l307 232q12 12 29 12t27 -12l90 -121q17 -21 7.5 -36t-21.5 -19l-356 -178q-29 -12 -51 19z"/>
<glyph unicode="Î" horiz-adv-x="605" d="M-54 1693l235 230q12 12 21.5 19t29.5 7h121q28 0 54 -26l232 -234q30 -30 0 -52l-54 -46q-11 -9 -22.5 -4.5t-28.5 15.5l-229 151q-15 9 -30 0l-224 -155q-16 -12 -26.5 -13t-26.5 11l-49 46q-31 23 -3 51zM178 32v1440q0 32 36 32h172q36 0 35 -32v-1437q0 -35 -35 -35 h-172q-37 0 -36 32z"/>
<glyph unicode="Ï" horiz-adv-x="605" d="M-49 1704.5q0 55.5 38 93t93 37.5t92.5 -37.5t37.5 -92t-36.5 -91.5t-92.5 -37t-94 36t-38 91.5zM178 32v1440q0 32 36 32h172q36 0 35 -32v-1437q0 -35 -35 -35h-172q-37 0 -36 32zM363 1704.5q0 55.5 37 93t93 37.5t93.5 -37.5t37.5 -92t-36.5 -91.5t-92.5 -37t-94 36 t-38 91.5z"/>
<glyph unicode="Ð" horiz-adv-x="1242" d="M27 714v100q0 32 29 32h74q21 0 21 26v598q0 34 39 34h463q226 0 341 -117t115 -327v-604q0 -222 -116 -339t-335 -117h-468q-39 0 -39 35v621q0 12 -2.5 19t-18.5 7h-72q-32 0 -31 32zM393 244q0 -32 28 -32h225q114 0 168 61t54 166v631q0 224 -237 224h-207 q-32 0 -31 -29v-390q0 -19 6 -24t17 -5h161q35 0 35 -32v-100q0 -32 -32 -32h-164q-23 0 -23 -17v-421z"/>
<glyph unicode="Ñ" horiz-adv-x="1300" d="M149 32v1413q0 29 9.5 44t43.5 15h107q33 0 46 -11t25 -30l536 -968q3 -2 6.5 -2t3.5 2v975q0 34 34 34h156q37 0 37 -32v-1423q0 -49 -49 -49h-107q-30 0 -44.5 7t-26.5 30l-538 963q0 4 -5 4l-3 -4v-968q0 -32 -36 -32h-156q-39 0 -39 32zM283 1686q32 61 86.5 101.5 t106 40.5t89 -14t74 -29t69.5 -29t61 -14q51 0 91 67q12 24 40 9l75 -44q26 -16 9 -51q-39 -75 -96 -109.5t-105 -34.5t-84 12.5t-71 28.5q-92 40 -137 40t-89 -67q-23 -22 -51 0l-63 47q-20 16 -5 46z"/>
<glyph unicode="Ò" horiz-adv-x="1249" d="M144 416v679q0 198 137 316q133 115 343 115q206 0 341 -113q142 -119 142 -318v-679q0 -195 -137 -316q-129 -114 -344 -114q-210 0 -343 110q-139 115 -139 320zM302.5 1764q-9.5 15 6.5 36l91 121q9 12 26.5 12t29.5 -12l307 -232q30 -22 7 -47l-39 -56 q-26 -25 -56 -14l-351 173q-12 4 -21.5 19zM383 419q0 -95 62 -158t176 -63t179 61.5t65 159.5v673q0 93 -63 157.5t-176.5 64.5t-178 -65t-64.5 -157v-673z"/>
<glyph unicode="Ó" horiz-adv-x="1249" d="M144 416v679q0 198 137 316q133 115 343 115q206 0 341 -113q142 -119 142 -318v-679q0 -195 -137 -316q-129 -114 -344 -114q-210 0 -343 110q-139 115 -139 320zM383 419q0 -95 62 -158t176 -63t179 61.5t65 159.5v673q0 93 -63 157.5t-176.5 64.5t-178 -65t-64.5 -157 v-673zM495 1642q-21 24 7 47l307 232q12 12 29.5 12t26.5 -12l91 -121q16 -21 6.5 -36t-21.5 -19l-356 -178q-29 -12 -51 19z"/>
<glyph unicode="Ô" horiz-adv-x="1249" d="M144 416v679q0 198 137 316q133 115 343 115q206 0 341 -113q142 -119 142 -318v-679q0 -195 -137 -316q-129 -114 -344 -114q-210 0 -343 110q-139 115 -139 320zM273 1674l234 229q27 27 51 27h121q29 0 54 -27l232 -233q30 -30 0 -52l-53 -46q-12 -10 -23.5 -5 t-28.5 15l-229 151q-15 9 -29 0l-225 -154q-16 -12 -25.5 -13t-27.5 11l-49 46q-31 22 -2 51zM383 419q0 -95 62 -158t176 -63t179 61.5t65 159.5v673q0 93 -63 157.5t-176.5 64.5t-178 -65t-64.5 -157v-673z"/>
<glyph unicode="Õ" horiz-adv-x="1249" d="M144 416v679q0 198 137 316q133 115 343 115q206 0 341 -113q142 -119 142 -318v-679q0 -195 -137 -316q-129 -114 -344 -114q-210 0 -343 110q-139 115 -139 320zM277 1711q32 61 87 101t106.5 40t89 -13.5t74.5 -29.5q95 -42 127 -42q53 0 95 66q12 23 39 9l75 -44 q26 -17 9 -51q-39 -75 -96 -109t-104.5 -34t-84 12t-71.5 28q-87 40 -134.5 40t-91.5 -66q-22 -22 -51 0l-63 47q-17 14 -6 46zM383 419q0 -95 62 -158t176 -63t179 61.5t65 159.5v673q0 93 -63 157.5t-176.5 64.5t-178 -65t-64.5 -157v-673z"/>
<glyph unicode="Ö" horiz-adv-x="1249" d="M144 416v679q0 198 137 316q133 115 343 115q206 0 341 -113q142 -119 142 -318v-679q0 -195 -137 -316q-129 -114 -344 -114q-210 0 -343 110q-139 115 -139 320zM283 1704.5q0 55.5 37.5 93t92.5 37.5t93 -37.5t38 -92t-37 -91.5t-93 -37t-93.5 36t-37.5 91.5zM383 419 q0 -95 62 -158t176 -63t179 61.5t65 159.5v673q0 93 -63 157.5t-176.5 64.5t-178 -65t-64.5 -157v-673zM695 1704.5q0 55.5 36.5 93t91.5 37.5q56 0 94.5 -37.5t38.5 -92t-37 -91.5t-93 -37t-93.5 36t-37.5 91.5z"/>
<glyph unicode="×" d="M209 258q-29 32 0 61l244 246q17 15 5 28l-249 246q-32 27 0 56l68 68q30 29 60 2l248 -246q12 -12 27 5l244 241q29 30 60 2l59 -60q29 -30 0 -61l-244 -241q-10 -10 -11 -15t8 -15l244 -247q28 -32 0 -58l-68 -68q-29 -34 -60 -2l-239 244q-10 12 -15 13t-18 -11 l-244 -246q-32 -27 -60 0z"/>
<glyph unicode="Ø" horiz-adv-x="1249" d="M142 409v672q0 216 148 334q136 108 336 108q156 0 283 -70q10 -5 17 -5t12 10l37 60q16 24 39 10l75 -39q24 -12 8 -38l-53 -96q-8 -14 0 -34q63 -96 63 -219v-690q0 -196 -141 -316q-130 -110 -338 -110q-181 0 -286 68q-8 7 -18 7t-14.5 -11t-13 -24.5t-15.5 -25.5 q-14 -27 -37 -14l-79 41q-14 8 -12.5 17.5t8.5 23.5l44 78q13 20 -6 47t-38 89t-19 127zM383 493q0 -15 6 -15.5t11 8.5l402 725q5 12 7.5 19.5t-17.5 27.5t-67.5 38t-100.5 18q-110 0 -175.5 -65t-65.5 -157v-599zM444 283q-10 -19 2 -27q61 -61 174 -61t179 62t66 159v598 q0 24 -12 9z"/>
<glyph unicode="Ù" horiz-adv-x="1251" d="M144 407v1065q0 32 34 32h171q34 0 34 -30v-1067q0 -90 66.5 -149.5t176 -59.5t176 60.5t66.5 153.5v1060q0 32 36 32h168q37 0 37 -30v-1067q0 -190 -144 -311q-132 -110 -339 -110q-206 0 -341 109q-141 115 -141 312zM261 1764q-10 15 7 36l90 121q10 12 27 12t29 -12 l307 -232q30 -22 7 -47l-38 -56q-26 -25 -57 -14l-350 173q-12 4 -22 19z"/>
<glyph unicode="Ú" horiz-adv-x="1251" d="M144 407v1065q0 32 34 32h171q34 0 34 -30v-1067q0 -90 66.5 -149.5t176 -59.5t176 60.5t66.5 153.5v1060q0 32 36 32h168q37 0 37 -30v-1067q0 -190 -144 -311q-132 -110 -339 -110q-206 0 -341 109q-141 115 -141 312zM477 1642q-21 24 9 47l307 232q11 12 28.5 12 t26.5 -12l90 -121q16 -21 6.5 -36t-21.5 -19l-355 -178q-30 -12 -52 19z"/>
<glyph unicode="Û" horiz-adv-x="1251" d="M144 407v1065q0 32 34 32h171q34 0 34 -30v-1067q0 -90 66.5 -149.5t176 -59.5t176 60.5t66.5 153.5v1060q0 32 36 32h168q37 0 37 -30v-1067q0 -190 -144 -311q-132 -110 -339 -110q-206 0 -341 109q-141 115 -141 312zM268 1674l234 229q28 27 51 27h122q28 0 53 -27 l232 -233q30 -30 0 -52l-53 -46q-12 -10 -23.5 -5t-27.5 15l-230 151q-14 9 -29 0l-225 -154q-16 -12 -25.5 -13t-27.5 11l-49 46q-31 22 -2 51z"/>
<glyph unicode="Ü" horiz-adv-x="1251" d="M144 407v1065q0 32 34 32h171q34 0 34 -30v-1067q0 -90 66.5 -149.5t176 -59.5t176 60.5t66.5 153.5v1060q0 32 36 32h168q37 0 37 -30v-1067q0 -190 -144 -311q-132 -110 -339 -110q-206 0 -341 109q-141 115 -141 312zM283 1704.5q0 55.5 37.5 93t92.5 37.5t93 -37.5 t38 -92t-37 -91.5t-93 -37t-93.5 36t-37.5 91.5zM695 1704.5q0 55.5 36.5 93t91.5 37.5q56 0 94.5 -37.5t38.5 -92t-37 -91.5t-93 -37t-93.5 36t-37.5 91.5z"/>
<glyph unicode="Ý" horiz-adv-x="1095" d="M39 1458q-17 46 29 46h166q24 0 38 -6.5t23 -27.5l242 -629q14 -16 21 -2q174 446 239 626q12 21 23 30t45 9h156q35 0 38.5 -13.5t-3.5 -30.5l-377 -867q-11 -32 -11 -62v-494q0 -37 -37 -37h-168q-37 0 -37 35v502q0 29 -12 51zM414 1642q-21 24 7 47l307 232 q12 12 29.5 12t26.5 -12l91 -121q16 -21 6.5 -36t-21.5 -19l-355 -178q-30 -12 -52 19z"/>
<glyph unicode="Þ" horiz-adv-x="1149" d="M154 32v1440q0 32 39 32h163q37 0 37 -30v-248q4 -19 26 -19h207q212 0 340 -129q123 -122 123 -325q0 -183 -130 -308q-134 -128 -331 -128h-209q-24 0 -24 -27v-255q0 -35 -37 -35h-165q-37 0 -39 32zM393 551q0 -24 26 -25h207q102 0 163.5 63.5t61.5 161.5t-63 172 t-162 74h-205q-24 0 -28 -25v-421z"/>
<glyph unicode="ß" horiz-adv-x="1186" d="M173 30v1079q0 181 116.5 300t312.5 119q199 0 317 -115q116 -115 116 -299q0 -68 -26.5 -134t-89.5 -98q-23 -9 0 -24q70 -35 105.5 -108t35.5 -157v-205q0 -180 -122 -300q-117 -112 -273 -112h-134q-30 0 -29 26v119q0 24 13 30.5t34 6.5h79q85 0 145 71q55 65 55 154 v205q0 90 -51 143t-144 53h-24q-29 0 -29 28v123q0 28 27 28h34q163 0 163 156q0 85 -52 147t-144 62t-147.5 -59.5t-55.5 -149.5v-1087q0 -32 -30 -32h-170q-32 0 -32 30z"/>
<glyph unicode="à" horiz-adv-x="1095" d="M98 357q0 174 103.5 276t293.5 102q113 0 200 -51q37 -24 36 16v33q0 75 -46 123t-154 48q-77 0 -155 -22t-107 -35t-39 21l-44 109q-8 30 16 42q166 76 371.5 76t296 -108t90.5 -290v-667q0 -30 -27 -30h-161q-27 0 -26 24v34q0 17 -10 20t-34.5 -18.5t-88.5 -46.5 t-141 -25q-180 0 -277 97.5t-97 271.5zM293 1484q-30 37 7 58l126 76q29 20 54 -20l197 -328q19 -28 -9 -47l-59 -37q-33 -22 -56 9zM312 366.5q0 -84.5 47.5 -140.5t148.5 -56t152.5 61.5t51.5 139.5t-50 136t-148 58t-150 -57t-52 -141.5z"/>
<glyph unicode="á" horiz-adv-x="1095" d="M98 357q0 174 103.5 276t293.5 102q113 0 200 -51q37 -24 36 16v33q0 75 -46 123t-154 48q-77 0 -155 -22t-107 -35t-39 21l-44 109q-8 30 16 42q166 76 371.5 76t296 -108t90.5 -290v-667q0 -30 -27 -30h-161q-27 0 -26 24v34q0 17 -10 20t-34.5 -18.5t-88.5 -46.5 t-141 -25q-180 0 -277 97.5t-97 271.5zM312 366.5q0 -84.5 47.5 -140.5t148.5 -56t152.5 61.5t51.5 139.5t-50 136t-148 58t-150 -57t-52 -141.5zM446 1270l198 328q9 14 24.5 22t28.5 1l126 -79q24 -14 21 -30t-13 -26l-261 -291q-10 -12 -26 -15t-30 6l-58 37 q-28 17 -10 47z"/>
<glyph unicode="â" horiz-adv-x="1095" d="M98 357q0 174 103.5 276t293.5 102q113 0 200 -51q37 -24 36 16v33q0 75 -46 123t-154 48q-77 0 -155 -22t-107 -35t-39 21l-44 109q-8 30 16 42q166 76 371.5 76t296 -108t90.5 -290v-667q0 -30 -27 -30h-161q-27 0 -26 24v34q0 17 -10 20t-34.5 -18.5t-88.5 -46.5 t-141 -25q-180 0 -277 97.5t-97 271.5zM209 1282l240 302q12 12 21.5 19.5t29.5 7.5h121q26 0 54 -27l237 -302q29 -30 0 -52l-56 -33q-32 -19 -54 5l-227 207q-19 17 -34 2l-222 -211q-12 -12 -22.5 -14t-31.5 11l-53 33q-31 23 -3 52zM312 366.5q0 -84.5 47.5 -140.5 t148.5 -56t152.5 61.5t51.5 139.5t-50 136t-148 58t-150 -57t-52 -141.5z"/>
<glyph unicode="ã" horiz-adv-x="1095" d="M98 357q0 174 103.5 276t293.5 102q113 0 200 -51q37 -24 36 16v33q0 75 -46 123t-154 48q-77 0 -155 -22t-107 -35t-39 21l-44 109q-8 30 16 42q166 76 371.5 76t296 -108t90.5 -290v-667q0 -30 -27 -30h-161q-27 0 -26 24v34q0 17 -10 20t-34.5 -18.5t-88.5 -46.5 t-141 -25q-180 0 -277 97.5t-97 271.5zM226 1345q32 60 87 100.5t106.5 40.5t89 -13t74.5 -29q95 -42 127 -42q55 0 94 65q12 24 40 10l75 -44q26 -17 9 -51q-39 -75 -96 -109.5t-105 -34.5t-84 12.5t-71 27.5q-92 41 -137 41t-89 -66q-24 -24 -51 0l-63 46q-18 15 -6 46z M312 366.5q0 -84.5 47.5 -140.5t148.5 -56t152.5 61.5t51.5 139.5t-50 136t-148 58t-150 -57t-52 -141.5z"/>
<glyph unicode="ä" horiz-adv-x="1095" d="M98 357q0 174 103.5 276t293.5 102q113 0 200 -51q37 -24 36 16v33q0 75 -46 123t-154 48q-77 0 -155 -22t-107 -35t-39 21l-44 109q-8 30 16 42q166 76 371.5 76t296 -108t90.5 -290v-667q0 -30 -27 -30h-161q-27 0 -26 24v34q0 17 -10 20t-34.5 -18.5t-88.5 -46.5 t-141 -25q-180 0 -277 97.5t-97 271.5zM214 1338.5q0 54.5 38 93t93 38.5t92.5 -38.5t37.5 -93t-36.5 -91t-92.5 -36.5t-94 36.5t-38 91zM312 366.5q0 -84.5 47.5 -140.5t148.5 -56t152.5 61.5t51.5 139.5t-50 136t-148 58t-150 -57t-52 -141.5zM626 1338.5q0 54.5 37 93 t93 38.5t93.5 -38.5t37.5 -93t-36.5 -91t-92.5 -36.5t-94 36.5t-38 91z"/>
<glyph unicode="å" horiz-adv-x="1095" d="M98 357q0 174 103.5 276t293.5 102q113 0 200 -51q37 -24 36 16v33q0 75 -46 123t-154 48q-77 0 -155 -22t-107 -35t-39 21l-44 109q-8 30 16 42q166 76 371.5 76t296 -108t90.5 -290v-667q0 -30 -27 -30h-161q-27 0 -26 24v34q0 17 -10 20t-34.5 -18.5t-88.5 -46.5 t-141 -25q-180 0 -277 97.5t-97 271.5zM312 366.5q0 -84.5 47.5 -140.5t148.5 -56t152.5 61.5t51.5 139.5t-50 136t-148 58t-150 -57t-52 -141.5zM319 1367q0 89 64 154t155.5 65t155.5 -61.5t64 -149.5t-62 -154t-154 -66t-157.5 61.5t-65.5 150.5zM439 1370 q0 -44 29 -74.5t71 -30.5t73.5 30.5t31.5 73t-32 75.5t-73 33q-42 0 -71 -31.5t-29 -75.5z"/>
<glyph unicode="æ" horiz-adv-x="1721" d="M98 361q0 172 111 277q114 106 291 106q44 0 100 -17.5t81 -32.5q50 -30 50 10v29q0 86 -65.5 130t-136.5 44q-118 0 -256 -61q-33 -14 -43 19l-44 112q-8 30 16 42q166 76 294 76t208 -31t142 -85q12 -8 29 0q121 115 309 116q194 0 320 -117q122 -113 122 -308v-117 q0 -27 -17.5 -45t-38.5 -18h-551q-22 0 -34.5 -13.5t-12.5 -30.5v-41q0 -88 58.5 -152.5t142.5 -64.5t137 35t78.5 66.5t36 35t30.5 -7.5l107 -68q40 -25 24 -51q-60 -112 -166 -162t-231 -50q-214 0 -341 126q-20 21 -41 0q-129 -124 -312 -124q-172 0 -283 99 q-114 101 -114 274zM319 369q0 -82 54.5 -140.5t144 -58.5t142 61.5t52.5 139.5t-56 136t-142 58t-140.5 -57t-54.5 -139zM984 682q-5 -26 32 -26h351q26 0 26 37q-4 92 -57.5 147t-152.5 55t-145 -61.5t-54 -151.5z"/>
<glyph unicode="ç" horiz-adv-x="1003" d="M105 395v277q0 191 129 306q128 114 322 114q243 0 382 -202q21 -35 -12 -59l-110 -78q-27 -19 -40 -8t-25 30q-37 56 -97.5 86.5t-102.5 30.5q-93 0 -153.5 -58.5t-60.5 -149.5v-294q0 -88 60.5 -145t151.5 -57q114 0 183 83q19 22 32 39.5t25.5 20.5t33.5 -12l100 -66 q44 -29 23 -58q-134 -204 -386 -209l-19 -84q0 -9 17 -9h24q86 0 139.5 -52.5t53.5 -135.5t-63.5 -142.5t-172 -59.5t-195.5 58q-22 14 -7 37l40 53q17 19 26 15.5t31 -13.5q56 -28 103.5 -28t73.5 20.5t26 50t-16 54t-72 24.5h-72q-41 0 -62.5 24t-9.5 65l34 132 q-153 28 -243.5 133.5t-90.5 266.5z"/>
<glyph unicode="è" horiz-adv-x="1091" d="M112 393v275q0 187 125 307t316 120q195 0 319 -117q123 -115 123 -308v-117q0 -27 -17.5 -45t-39.5 -18h-550q-21 0 -33.5 -13.5t-12.5 -30.5v-41q0 -88 58 -152.5t142 -64.5t136.5 35t78 66.5t36.5 35t30 -7.5l108 -68q40 -25 25 -51q-61 -112 -167.5 -162t-218.5 -50 t-194.5 29t-141.5 81q-122 109 -122 297zM277 1484q-29 37 9 58l126 76q29 20 53 -20l198 -328q19 -28 -10 -47l-58 -37q-34 -22 -56 9zM353 682q-2 -12 4 -19t29 -7h349q28 0 28 37q-5 92 -58.5 147t-152.5 55t-145 -61.5t-54 -151.5z"/>
<glyph unicode="é" horiz-adv-x="1091" d="M112 393v275q0 187 125 307t316 120q195 0 319 -117q123 -115 123 -308v-117q0 -27 -17.5 -45t-39.5 -18h-550q-21 0 -33.5 -13.5t-12.5 -30.5v-41q0 -88 58 -152.5t142 -64.5t136.5 35t78 66.5t36.5 35t30 -7.5l108 -68q40 -25 25 -51q-61 -112 -167.5 -162t-218.5 -50 t-194.5 29t-141.5 81q-122 109 -122 297zM353 682q-2 -12 4 -19t29 -7h349q28 0 28 37q-5 92 -58.5 147t-152.5 55t-145 -61.5t-54 -151.5zM446 1270l198 328q9 14 24.5 22t28.5 1l126 -79q24 -14 21 -30t-13 -26l-261 -291q-10 -12 -26 -15t-30 6l-58 37q-28 17 -10 47z "/>
<glyph unicode="ê" horiz-adv-x="1091" d="M112 393v275q0 187 125 307t316 120q195 0 319 -117q123 -115 123 -308v-117q0 -27 -17.5 -45t-39.5 -18h-550q-21 0 -33.5 -13.5t-12.5 -30.5v-41q0 -88 58 -152.5t142 -64.5t136.5 35t78 66.5t36.5 35t30 -7.5l108 -68q40 -25 25 -51q-61 -112 -167.5 -162t-218.5 -50 t-194.5 29t-141.5 81q-122 109 -122 297zM209 1282l240 302q12 12 21.5 19.5t29.5 7.5h121q26 0 54 -27l237 -302q29 -30 0 -52l-56 -33q-32 -19 -54 5l-227 207q-19 17 -34 2l-222 -211q-12 -12 -22.5 -14t-31.5 11l-53 33q-31 23 -3 52zM353 682q-2 -12 4 -19t29 -7h349 q28 0 28 37q-5 92 -58.5 147t-152.5 55t-145 -61.5t-54 -151.5z"/>
<glyph unicode="ë" horiz-adv-x="1091" d="M112 393v275q0 187 125 307t316 120q195 0 319 -117q123 -115 123 -308v-117q0 -27 -17.5 -45t-39.5 -18h-550q-21 0 -33.5 -13.5t-12.5 -30.5v-41q0 -88 58 -152.5t142 -64.5t136.5 35t78 66.5t36.5 35t30 -7.5l108 -68q40 -25 25 -51q-61 -112 -167.5 -162t-218.5 -50 t-194.5 29t-141.5 81q-122 109 -122 297zM230 1338.5q0 54.5 37.5 93t92 38.5t92.5 -38.5t38 -93t-37 -91t-92 -36.5q-56 0 -93.5 36.5t-37.5 91zM353 682q-2 -12 4 -19t29 -7h349q28 0 28 37q-5 92 -58.5 147t-152.5 55t-145 -61.5t-54 -151.5zM641 1338.5q0 54.5 36.5 93 t92.5 38.5t94 -38.5t38 -93t-37 -91t-93 -36.5t-93.5 36.5t-37.5 91z"/>
<glyph unicode="ì" horiz-adv-x="518" d="M-54 1484q-29 36 8 58l127 76q27 18 53 -20l198 -328q19 -28 -11 -47l-58 -37q-34 -22 -56 9zM144 30v1014q0 32 29 31h171q32 0 31 -31v-1014q0 -30 -29 -30h-171q-32 0 -31 30z"/>
<glyph unicode="í" horiz-adv-x="518" d="M144 30v1014q0 32 29 31h171q32 0 31 -31v-1014q0 -30 -29 -30h-171q-32 0 -31 30zM163 1270l198 328q9 14 25 22t28 1l127 -79q40 -23 8 -56l-261 -291q-10 -12 -26 -15t-30 6l-59 37q-28 17 -10 47z"/>
<glyph unicode="î" horiz-adv-x="518" d="M-93 1282l239 302q28 27 52 27h121q26 0 53 -27l237 -302q30 -30 0 -52l-56 -33q-31 -19 -53 5l-227 207q-20 17 -34 2l-222 -211q-12 -12 -23 -14t-31 11l-53 33q-32 23 -3 52zM144 30v1014q0 32 29 31h171q32 0 31 -31v-1014q0 -30 -29 -30h-171q-32 0 -31 30z"/>
<glyph unicode="ï" horiz-adv-x="518" d="M-70 1338.5q0 54.5 37.5 93t92 38.5t92.5 -38.5t38 -93t-36.5 -91t-92.5 -36.5t-93.5 36.5t-37.5 91zM144 30v1014q0 32 29 31h171q32 0 31 -31v-1014q0 -30 -29 -30h-171q-32 0 -31 30zM342 1338.5q0 54.5 36 93t92 38.5t94 -38.5t38 -93t-37 -91t-93 -36.5t-93 36.5 t-37 91z"/>
<glyph unicode="ð" horiz-adv-x="1112" d="M109 405v170q0 223 105 338t305 115q149 0 239 -75q2 -2 10 -2q7 0 7 16q0 151 -47 230q-9 7 -21 -6l-86 -89q-16 -17 -31 -2l-64 53q-17 12 5 33l78 84q19 19 19 27t-14 20q-61 48 -220 51q-52 2 -52 39v123q0 35 46 35h38q102 -5 187 -25q87 -20 173 -82q7 -5 18 7 l98 100q15 15 31 0l64 -63q12 -12 -5 -30l-97 -100q-13 -13 -2 -26t16 -25q86 -120 86 -519v-407q-5 -197 -127 -303t-323 -106t-318.5 106t-117.5 313zM339 400q0 -95 52.5 -154.5t158.5 -59.5t160.5 59.5t54.5 154.5v165q0 268 -219 268q-112 0 -159.5 -65.5t-47.5 -151.5 v-216z"/>
<glyph unicode="ñ" horiz-adv-x="1147" d="M132 30v1014q0 32 31 31h169q27 0 26 -29v-49q0 -37 38 2.5t116 64.5t144 25q188 0 275.5 -113t87.5 -297v-647q0 -32 -30 -32h-170q-32 0 -31 30v645q0 93 -52 154t-154 61t-159.5 -60t-57.5 -153v-645q0 -32 -31 -32h-169q-34 0 -33 30zM186 1345q32 60 86 100.5 t106 40.5t89.5 -13t73.5 -29q95 -42 127 -42q55 0 95 65q12 24 39 10l75 -44q26 -17 10 -51q-40 -75 -97 -109.5t-104.5 -34.5t-84 12.5t-71.5 27.5q-92 41 -136.5 41t-88.5 -66q-25 -24 -52 0l-63 46q-17 14 -4 46z"/>
<glyph unicode="ò" horiz-adv-x="1115" d="M114 395v284q0 186 123 302q122 114 322.5 114t320.5 -108t120 -305v-282q0 -200 -117.5 -307t-324.5 -107t-325.5 107t-118.5 302zM288 1484q-30 37 7 58l126 76q29 20 54 -20l197 -328q19 -28 -9 -47l-58 -37q-34 -22 -56 9zM346 400q0 -93 51.5 -153.5t155 -60.5 t159.5 58t56 156v277q0 95 -54 155t-156 60t-157 -60t-55 -155v-277z"/>
<glyph unicode="ó" horiz-adv-x="1115" d="M114 395v284q0 186 123 302q122 114 322.5 114t320.5 -108t120 -305v-282q0 -200 -117.5 -307t-324.5 -107t-325.5 107t-118.5 302zM346 400q0 -93 51.5 -153.5t155 -60.5t159.5 58t56 156v277q0 95 -54 155t-156 60t-157 -60t-55 -155v-277zM475 1270l197 328 q10 14 26 22t28 1l127 -79q40 -23 7 -56l-260 -291q-10 -12 -26 -15t-30 6l-58 37q-28 17 -11 47z"/>
<glyph unicode="ô" horiz-adv-x="1115" d="M114 395v284q0 186 123 302q122 114 322.5 114t320.5 -108t120 -305v-282q0 -200 -117.5 -307t-324.5 -107t-325.5 107t-118.5 302zM209 1282l240 302q12 12 21.5 19.5t29.5 7.5h121q26 0 54 -27l237 -302q29 -30 0 -52l-56 -33q-32 -19 -54 5l-227 207q-19 17 -34 2 l-222 -211q-12 -12 -22.5 -14t-31.5 11l-53 33q-31 23 -3 52zM346 400q0 -93 51.5 -153.5t155 -60.5t159.5 58t56 156v277q0 95 -54 155t-156 60t-157 -60t-55 -155v-277z"/>
<glyph unicode="õ" horiz-adv-x="1115" d="M114 395v284q0 186 123 302q122 114 322.5 114t320.5 -108t120 -305v-282q0 -200 -117.5 -307t-324.5 -107t-325.5 107t-118.5 302zM217 1345q32 60 86.5 100.5t106 40.5t89.5 -13t74 -29q95 -42 127 -42q52 0 95 65q12 24 38 10l76 -44q26 -17 10 -51 q-40 -75 -97 -109.5t-104.5 -34.5t-84 12.5t-71.5 27.5q-94 41 -138 41t-87 -66q-24 -24 -51 0l-65 46q-17 14 -4 46zM346 400q0 -93 51.5 -153.5t155 -60.5t159.5 58t56 156v277q0 95 -54 155t-156 60t-157 -60t-55 -155v-277z"/>
<glyph unicode="ö" horiz-adv-x="1115" d="M114 395v284q0 186 123 302q122 114 322.5 114t320.5 -108t120 -305v-282q0 -200 -117.5 -307t-324.5 -107t-325.5 107t-118.5 302zM230 1338.5q0 54.5 37.5 93t92 38.5t92.5 -38.5t38 -93t-37 -91t-92 -36.5q-56 0 -93.5 36.5t-37.5 91zM346 400q0 -93 51.5 -153.5 t155 -60.5t159.5 58t56 156v277q0 95 -54 155t-156 60t-157 -60t-55 -155v-277zM641 1338.5q0 54.5 36.5 93t92.5 38.5t94 -38.5t38 -93t-37 -91t-93 -36.5t-93.5 36.5t-37.5 91z"/>
<glyph unicode="÷" d="M102 621v69q0 49 59 49h874q59 0 60 -49v-66q0 -54 -60 -54h-874q-59 0 -59 51zM449 239q0 63 46 109.5t110.5 46.5t112 -45t47.5 -109.5t-45 -109.5t-113 -45t-113 44.5t-45 108.5zM449 1070q0 63 46 109.5t110.5 46.5t112 -45.5t47.5 -109.5t-45 -109.5t-113 -45.5 t-113 45.5t-45 108.5z"/>
<glyph unicode="ø" horiz-adv-x="1091" d="M95 402v275q0 190 122 304q121 114 317 114q149 0 259 -67q18 -7 30 5l33 42q12 16 23 13.5t28 -13.5l53 -44q24 -17 5 -44l-39 -54q-10 -12 -6.5 -19t3.5 -10q56 -90 56 -225v-274q0 -203 -120 -311t-301.5 -108t-299.5 77q-9 7 -16 -5l-35 -41q-9 -12 -15 -17t-27 10 l-48 41q-30 22 -12 44l46 61q7 9 3.5 14t-16.5 30t-28 82t-15 120zM326 402q0 -14 8 -10.5t12 10.5l326 429q7 10 -2 20q-51 44 -135 44t-146.5 -60t-62.5 -158v-275zM393 261q-7 -10 7 -28.5t53.5 -32.5t80.5 -14q98 0 155 59.5t60 156.5v286q0 19 -5 17.5t-11 -5.5z"/>
<glyph unicode="ù" horiz-adv-x="1135" d="M117 395v649q0 32 29 31h171q32 0 32 -29v-646q0 -93 50 -153.5t153.5 -60.5t160.5 59.5t57 151.5v647q0 32 32 31h168q32 0 32 -29v-1014q0 -32 -30 -32h-168q-27 0 -27 30v31q0 19 -9.5 18.5t-40 -28t-94 -46.5t-131.5 -19q-188 0 -286.5 113t-98.5 296zM275 1484 q-30 37 8 58l126 76q30 20 54 -20l197 -328q19 -28 -9 -47l-58 -37q-34 -22 -56 9z"/>
<glyph unicode="ú" horiz-adv-x="1135" d="M117 395v649q0 32 29 31h171q32 0 32 -29v-646q0 -93 50 -153.5t153.5 -60.5t160.5 59.5t57 151.5v647q0 32 32 31h168q32 0 32 -29v-1014q0 -32 -30 -32h-168q-27 0 -27 30v31q0 19 -9.5 18.5t-40 -28t-94 -46.5t-131.5 -19q-188 0 -286.5 113t-98.5 296zM500 1270 l197 328q10 14 26 22t28 1l126 -79q24 -14 21 -30t-14 -26l-260 -291q-10 -12 -26 -15t-30 6l-59 37q-27 17 -9 47z"/>
<glyph unicode="û" horiz-adv-x="1135" d="M117 395v649q0 32 29 31h171q32 0 32 -29v-646q0 -93 50 -153.5t153.5 -60.5t160.5 59.5t57 151.5v647q0 32 32 31h168q32 0 32 -29v-1014q0 -32 -30 -32h-168q-27 0 -27 30v31q0 19 -9.5 18.5t-40 -28t-94 -46.5t-131.5 -19q-188 0 -286.5 113t-98.5 296zM214 1282 l239 302q28 27 52 27h121q26 0 53 -27l237 -302q30 -30 0 -52l-56 -33q-31 -19 -53 5l-227 207q-20 17 -34 2l-222 -211q-12 -12 -23 -14t-31 11l-53 33q-32 23 -3 52z"/>
<glyph unicode="ü" horiz-adv-x="1135" d="M117 395v649q0 32 29 31h171q32 0 32 -29v-646q0 -93 50 -153.5t153.5 -60.5t160.5 59.5t57 151.5v647q0 32 32 31h168q32 0 32 -29v-1014q0 -32 -30 -32h-168q-27 0 -27 30v31q0 19 -9.5 18.5t-40 -28t-94 -46.5t-131.5 -19q-188 0 -286.5 113t-98.5 296zM230 1338.5 q0 54.5 37.5 93t92 38.5t92.5 -38.5t38 -93t-37 -91t-92 -36.5q-56 0 -93.5 36.5t-37.5 91zM641 1338.5q0 54.5 36.5 93t92.5 38.5t94 -38.5t38 -93t-37 -91t-93 -36.5t-93.5 36.5t-37.5 91z"/>
<glyph unicode="ý" horiz-adv-x="1042" d="M39 1033q-16 46 31 46h162q46 0 56 -39l107 -438l82 -363q5 -19 16.5 -20.5t18.5 20.5l248 794q8 17 19 31.5t42 14.5h144q54 0 37 -53l-465 -1421q-13 -51 -74 -51h-121q-60 0 -37 66l109 341q5 16 5 27.5t-22 11.5h-25q-46 0 -60 49zM424 1270l197 328q10 14 26 22 t28 1l127 -79q39 -23 7 -56l-260 -291q-10 -12 -26 -15t-30 6l-59 37q-27 17 -10 47z"/>
<glyph unicode="þ" horiz-adv-x="1125" d="M132 -412v1933q0 30 31 30h158q15 0 22.5 -5.5t7.5 -24.5v-502q0 -28 14.5 -22.5t37.5 26.5q76 66 204 66q188 0 298.5 -112t110.5 -298v-282q0 -178 -112 -295q-114 -119 -292 -119q-133 0 -207 63q-19 17 -30.5 11t-11.5 -20v-446q0 -32 -29 -32h-171q-32 0 -31 29z M363 397q0 -88 58.5 -151t152.5 -63t152 62t58 152v280q0 91 -59.5 152t-151 61t-151 -61t-59.5 -150v-282z"/>
<glyph unicode="ÿ" horiz-adv-x="1042" d="M39 1033q-16 46 31 46h162q46 0 56 -39l107 -438l82 -363q5 -19 16.5 -20.5t18.5 20.5l248 794q8 17 19 31.5t42 14.5h144q54 0 37 -53l-465 -1421q-13 -51 -74 -51h-121q-60 0 -37 66l109 341q5 16 5 27.5t-22 11.5h-25q-46 0 -60 49zM188 1338.5q0 54.5 37.5 93 t92 38.5t93 -38.5t38.5 -93t-37 -91t-93 -36.5t-93.5 36.5t-37.5 91zM600 1338.5q0 54.5 36 93t92 38.5t94 -38.5t38 -93t-36 -91t-93 -36.5q-56 0 -93.5 36.5t-37.5 91z"/>
<glyph unicode="Œ" horiz-adv-x="1676" d="M139 409v693q0 195 134 311q132 113 336 113q86 0 163 -22h779q36 0 35 -32v-142q0 -36 -33 -36h-569q-30 0 -28 -24v-366q0 -29 26 -29h471q35 0 33 -34v-144q0 -34 -31 -34h-473q-28 0 -26 -30v-391q0 -30 31 -30h575q35 0 34 -34v-141q0 -37 -34 -37h-811 q-60 -14 -152 -14t-178.5 26.5t-148.5 80.5q-133 114 -133 316zM375 414q0 -97 62.5 -156.5t174.5 -59.5q56 0 102 19v1080q-56 17 -100 17q-109 0 -174 -62.5t-65 -154.5v-683z"/>
<glyph unicode="œ" horiz-adv-x="1754" d="M114 395v284q0 186 123 302q122 114 319 114q90 0 173 -31t136 -87q24 -29 51 -2q120 120 298 120q194 0 319 -117q122 -115 122 -308v-117q0 -27 -17 -45t-40 -18h-550q-21 0 -33.5 -13.5t-12.5 -30.5v-41q0 -88 58.5 -152.5t142 -64.5t136 35t78 66.5t37 35t30.5 -7.5 l107 -68q40 -25 25 -51q-61 -112 -167.5 -162t-214.5 -50q-213 0 -318 109q-19 19 -28 15.5t-23 -15.5q-109 -109 -307 -109t-319 108q-125 112 -125 301zM346 400q0 -93 58.5 -153.5t151.5 -60.5t153.5 58t60.5 156l-2 277q0 95 -58.5 155t-151.5 60t-152.5 -60t-59.5 -155 v-277zM1014 682q-2 -12 3.5 -19t28.5 -7h351q26 0 26 37q-5 92 -58.5 147t-152 55t-145 -61.5t-53.5 -151.5z"/>
<glyph unicode="Ÿ" horiz-adv-x="1095" d="M39 1458q-17 46 29 46h166q24 0 38 -6.5t23 -27.5l242 -629q14 -16 21 -2q174 446 239 626q12 21 23 30t45 9h156q35 0 38.5 -13.5t-3.5 -30.5l-377 -867q-11 -32 -11 -62v-494q0 -37 -37 -37h-168q-37 0 -37 35v502q0 29 -12 51zM195 1704.5q0 55.5 37.5 93t92.5 37.5 t93 -37.5t38 -92t-36.5 -91.5t-93.5 -37q-56 0 -93.5 36t-37.5 91.5zM607 1704.5q0 55.5 36 93t92 37.5t94.5 -37.5t38.5 -92t-36.5 -91.5t-92.5 -37t-94 36t-38 91.5z"/>
<glyph unicode="ˆ" horiz-adv-x="1095" d="M209 1282l240 302q12 12 21.5 19.5t29.5 7.5h121q26 0 54 -27l237 -302q29 -30 0 -52l-56 -33q-32 -19 -54 5l-227 207q-19 17 -34 2l-222 -211q-12 -12 -22.5 -14t-31.5 11l-53 33q-31 23 -3 52z"/>
<glyph unicode="˜" horiz-adv-x="1093" d="M200 1345q32 60 87 100.5t106 40.5t88.5 -13t74.5 -29q97 -42 128 -42q53 0 93 65q12 24 39 10l76 -44q27 -17 10 -51q-39 -75 -96 -109.5t-105 -34.5t-84.5 12.5t-72.5 27.5q-91 41 -136 41t-89 -66q-23 -23 -51 0l-63 46q-18 14 -5 46z"/>
<glyph unicode=" " horiz-adv-x="984"/>
<glyph unicode=" " horiz-adv-x="1969"/>
<glyph unicode=" " horiz-adv-x="984"/>
<glyph unicode=" " horiz-adv-x="1969"/>
<glyph unicode=" " horiz-adv-x="656"/>
<glyph unicode=" " horiz-adv-x="492"/>
<glyph unicode=" " horiz-adv-x="328"/>
<glyph unicode=" " horiz-adv-x="328"/>
<glyph unicode=" " horiz-adv-x="246"/>
<glyph unicode=" " horiz-adv-x="393"/>
<glyph unicode=" " horiz-adv-x="109"/>
<glyph unicode="‐" horiz-adv-x="808" d="M119 512v125q0 29 30 28h492q33 0 31 -26v-127q0 -30 -28 -29h-493q-32 0 -32 29z"/>
<glyph unicode="‑" horiz-adv-x="808" d="M119 512v125q0 29 30 28h492q33 0 31 -26v-127q0 -30 -28 -29h-493q-32 0 -32 29z"/>
<glyph unicode="‒" horiz-adv-x="808" d="M119 512v125q0 29 30 28h492q33 0 31 -26v-127q0 -30 -28 -29h-493q-32 0 -32 29z"/>
<glyph unicode="–" horiz-adv-x="1218" d="M73 519v102q0 30 29 30h1012q32 0 32 -27v-105q0 -30 -30 -29h-1011q-32 0 -32 29z"/>
<glyph unicode="—" horiz-adv-x="2437" d="M73 519v102q0 30 29 30h2230q33 0 33 -27v-105q0 -30 -33 -29h-2227q-32 0 -32 29z"/>
<glyph unicode="‘" horiz-adv-x="496" d="M79 1102l123 438q16 44 59 44h71q47 0 40 -63l-28 -429q0 -21 -13.5 -40t-42.5 -19h-162q-70 0 -47 69z"/>
<glyph unicode="’" horiz-adv-x="503" d="M114 1097l30 429q6 58 56 58h161q70 0 51 -70l-126 -437q-12 -44 -60 -44h-70q-49 0 -42 64z"/>
<glyph unicode="‚" horiz-adv-x="537" d="M124 -219l30 428q0 59 55 59h161q42 0 50 -18t-1 -50l-126 -437q-12 -44 -56 -44h-72q-29 0 -35 19.5t-6 42.5z"/>
<glyph unicode="“" horiz-adv-x="808" d="M70 1102l125 438q10 27 23.5 35.5t34.5 8.5h71q45 0 39 -63l-26 -429q-7 -59 -60 -59h-158q-39 0 -48.5 18.5t-0.5 50.5zM411.5 1051.5q-9.5 18.5 0.5 50.5l127 438q10 27 23 35.5t35 8.5h68q48 0 42 -63l-30 -429q0 -21 -13 -40t-43 -19h-158q-42 0 -51.5 18.5z"/>
<glyph unicode="”" horiz-adv-x="808" d="M95 1097l29 429q6 58 59 58h159q70 0 46 -70l-125 -437q-11 -44 -56 -44h-70q-49 0 -42 64zM439 1097l26 429q6 58 59 58h158q42 0 52 -18.5t-1 -51.5l-126 -437q-12 -44 -58 -44h-72q-44 0 -38 64z"/>
<glyph unicode="„" horiz-adv-x="916" d="M124 -219l27 431q11 56 58 56h161q42 0 51.5 -17t-2.5 -51l-126 -437q-12 -44 -56 -44h-72q-49 0 -41 62zM500 -219l28 431q6 56 57 56h161q42 0 51.5 -17t-2.5 -51l-127 -437q-12 -44 -56 -44h-71q-48 0 -41 62z"/>
<glyph unicode="•" horiz-adv-x="932" d="M178 568q0 121 86 204q88 86 206 86q117 0 202.5 -85.5t85.5 -204.5q0 -117 -86 -203q-84 -84 -203 -84q-60 0 -112 22.5t-93 61.5q-86 83 -86 203z"/>
<glyph unicode="…" horiz-adv-x="1727" d="M146 121q0 59 43 101.5t103.5 42.5t103.5 -41.5t43 -101t-41.5 -101.5t-103.5 -42t-105 42t-43 100zM721 121q0 59 41.5 101.5t103.5 42.5t105 -41.5t43 -101t-41.5 -101.5t-103.5 -42t-105 42t-43 100zM1286 121q0 59 43 101.5t102.5 42.5t103.5 -41.5t44 -101 t-43 -101.5t-103.5 -42t-103.5 42t-43 100z"/>
<glyph unicode=" " horiz-adv-x="393"/>
<glyph unicode="‹" horiz-adv-x="808" d="M121.5 495q2.5 24 22.5 51l282 351q14 17 30 27.5t51 10.5h139q30 0 38.5 -15.5t-9.5 -35.5l-298 -368q-14 -19 -13 -27.5t11 -20.5l295 -361q17 -19 7.5 -38.5t-31.5 -19.5h-137q-29 0 -46 10.5t-42 38.5l-275 339q-27 34 -24.5 58z"/>
<glyph unicode="›" horiz-adv-x="808" d="M126 919q8 16 37 16h139q35 0 50.5 -10.5t30.5 -27.5l282 -351q19 -27 22 -51.5t-24 -57.5l-275 -339q-24 -28 -42 -38.5t-46 -10.5h-137q-21 0 -31.5 19.5t7.5 38.5l295 361q10 12 11 20.5t-14 27.5l-297 368q-16 19 -8 35z"/>
<glyph unicode=" " horiz-adv-x="492"/>
<glyph unicode="€" d="M90 568v95q0 30 31 30l683 -3q19 0 28 -12.5t9 -17.5v-92q0 -31 -34 -31h-332q-24 0 -29 -12.5t-5 -15.5v-104q0 -93 56 -156t152.5 -63t151.5 32.5t94 88.5q24 36 53 17l131 -85q24 -16 7 -44q-83 -114 -178.5 -161.5t-219 -47.5t-206 28t-143.5 80q-127 108 -127 308 v112q0 24 -17 25h-76q-30 0 -29 29zM90 841v92q0 32 31 32h69q17 0 19.5 11t2.5 19v107q0 198 132 314q124 110 324 110q129 0 242 -52.5t174 -164.5q17 -30 -12 -49l-121 -76q-39 -21 -56 16q-77 123 -227 123q-103 0 -165 -58t-62 -158v-118q0 -24 34 -24h332q34 0 34 -30 v-91q0 -32 -32 -32h-690q-30 0 -29 29z"/>
<glyph unicode="™" horiz-adv-x="1470" d="M56 1402v80q0 23 17 25h490q19 0 19 -23v-82q0 -22 -19 -23h-154q-19 0 -19 -19v-602q0 -21 -22 -23h-98q-24 0 -24 23v602q0 19 -14 19h-157q-19 0 -19 23zM639 756v723q0 28 21 28h73q21 0 26.5 -5.5t15.5 -22.5q56 -132 111 -257t111 -257q3 -2 7 -2q5 0 5 2 q145 336 221 512q10 30 37 30h75q24 0 25 -25v-726q0 -19 -19 -21h-88q-19 0 -20 16v402q0 7 -3.5 7t-8.5 -5l-168 -373q-12 -24 -32 -24h-49q-21 0 -31 21l-169 376q0 3 -3.5 3t-3.5 -5l-2 -397q0 -19 -19 -21h-91q-21 0 -21 21z"/>
<glyph unicode="" horiz-adv-x="1072" d="M0 0v1072h1072v-1072h-1072z"/>
</font>
</defs>
</svg>
