<svg width="640" height="480" xmlns="http://www.w3.org/2000/svg" preserveAspectRatio="none">
 <!-- Created with SVG-edit - http://svg-edit.googlecode.com/ -->

 <g display="none">
  <title>Layer 2</title>
  <rect id="svg_1" height="480" width="640" y="0" x="0"  stroke-width="0" stroke="#ff0000" fill="#34c7dd"/>
  <rect id="svg_2" height="0" width="1" y="601" x="1493" opacity="0.35"  stroke-width="0" stroke="#ff0000" fill="#34c7dd"/>
 </g>
 <g display="inline">
  <title>Layer 1</title>
  <path transform="rotate(90, 384, 232.91)" id="svg_5" d="m150.00204,617.29083l0,-768.76147l467.99594,768.76147l-467.99594,0z" opacity="0.6"  stroke-width="0" stroke="#ff0000" fill="#ffffff"/>
  <path id="svg_7" opacity="0.45" d="m-0.38068,-17.998l768.76166,0l-768.76166,467.99599l0,-467.99599z"  stroke-width="0" stroke="#ff0000" fill="#ffffff"/>
  <path id="svg_6" d="m1377.08386,1103.95569l0,-13.99658l13.99695,13.99658l-13.99695,0z" opacity="0.22"  stroke-width="0" stroke="#000000" fill="#ffffff"/>
  <path opacity="0.25" id="svg_11" d="m236.12,-12.248l162.38101,0.5003l384.38101,1.5004l-485.76202,295.71529l-283.99996,-170.85743l222.99995,-126.85801l0,-0.00001l0.00002,0l0,-0.00002l0,-0.00001l0,-0.00002l0,-0.00001l0,-0.00002l0,-0.00001l0,-0.00002l0,-0.00002l0,-0.00001l0,-0.00002l0,-0.00001l0,-0.00002l0,-0.00001l0,-0.00002l0,-0.00001l0,-0.00002l0,-0.00001l0,-0.00002l0,-0.00001l0,-0.00002l0,-0.00001l0,-0.00002l0,-0.00001l0,-0.00002l0,-0.00001l0,-0.00002l0,-0.00002l0,-0.00002l0,-0.00001l0,-0.00002l0,-0.00001l0,-0.00002l0,-0.00001l0,-0.00002l0,-0.00001z"  stroke-width="0" stroke="#ff0000" fill="#ffffff"/>
  <path id="svg_13" d="m640.09424,479.99142l0,-127.99689l-671,127.99689l671,0z" opacity="0.25"  stroke-width="0" stroke="#ff0000" fill="#ffffff"/>
  <path id="svg_12" d="m221.62,-19.998l546.76202,2.0007l-485.76202,295.71529l-281.99997,-169.85775l220.99997,-127.85781l0,0l0,0l0,0l0,0l0,-0.0001l0,0l0,0l0,0l0,0l0,0l0,0l0,0l0,-0.0001l0,0l0,0l0,-0.00001l0,-0.00003l0,-0.00002l0,-0.00001l0,-0.00001l0,-0.00002l0,-0.00001l0,-0.00002l0,-0.00001l0,-0.00002l0,-0.00001l0,-0.00002l0,-0.00001l0,-0.00002l0,-0.00001z"  stroke-width="0" stroke="#ff0000" fill="#ffffff"/>
  <path id="svg_4" opacity="0.22" d="m184.72388,-69.74802l604.1571,55.40305l-578.97388,352.56085l-242.76588,-240.75039l-3.02219,-142.03197l220.60488,-25.18119l0,0l0,0l0,0l0,0l0,0l0,-0.0001l0,0l0,0l0,0l0,0l0,-0.00011l0,0l0,0l0,0l0,0l0,0l0,0l0,-0.00011l0,0l0,0l0,-0.00001l0,-0.00002l-0.00003,0z"  stroke-width="0" stroke="#ff0000" fill="#ffffff"/>
  <path id="svg_8" d="m324.42401,-19.9958l-133.00002,-10.0042l-191.00394,138.004l324.00395,-127.9998z"  stroke-width="0" stroke="#ff0000" fill="#ffffff"/>
  <path id="svg_3" opacity="0.45" d="m175.71701,-65.49795l582.91391,53.45499l-558.61612,340.16421l-234.22984,-232.28521l-2.91592,-137.0379l212.84805,-24.29578l0,0l0,0l0,0l0,0l0,0l0,-0.0001l0,0l0,0l0,0l0,0l0,-0.0001l0,0l0,0l0,0l0,0l0,0l0,0l0,-0.00011l0,0l0,0l0,-0.00002l0,-0.00002l0.00006,0.00003l-0.00002,0.00002l-0.00006,-0.00001l-0.00006,0z"  stroke-width="0" stroke="#ff0000" fill="#ffffff"/>
 </g>
</svg>